<svg width="32" height="24" viewBox="0 0 32 24" fill="none" xmlns="http://www.w3.org/2000/svg">
<path d="M16.0018 17.8767C13.333 17.8767 11.1523 15.7156 11.1523 13.0272C11.1523 10.3584 13.3135 8.17773 16.0018 8.17773C18.6707 8.17773 20.8513 10.3388 20.8513 13.0272C20.8513 15.7156 18.6707 17.8767 16.0018 17.8767Z" fill="white"/>
<path d="M31.4142 2.56738H5.68918L4.71928 2.56742L3.48251 2.56738H2.16111H0.585842C0.253865 2.56738 0 2.82125 0 3.15322V22.9091C0 23.2411 0.253865 23.495 0.585842 23.495H31.4142C31.7461 23.495 32 23.2411 32 22.9091V3.15322C32 2.82125 31.7461 2.56738 31.4142 2.56738ZM16 20.6439C11.808 20.6439 8.38405 17.2134 8.38405 13.0279C8.38405 8.8424 11.8145 5.41197 16 5.41197C20.1855 5.41197 23.6159 8.8424 23.6159 13.0279C23.6159 17.2134 20.192 20.6439 16 20.6439ZM27.502 8.0743C26.6103 8.0743 25.8747 7.33874 25.8747 6.44696C25.8747 5.55518 26.6103 4.81962 27.502 4.81962C28.3938 4.81962 29.1294 5.55518 29.1294 6.44696C29.1294 7.33874 28.3938 8.0743 27.502 8.0743Z" fill="white"/>
<path d="M21.0235 1.2008C20.8299 0.644942 20.3058 0.272461 19.7172 0.272461H12.8956C12.307 0.272461 11.7829 0.644942 11.5893 1.2008C11.2763 2.09977 11.9437 3.03894 12.8956 3.03894H19.7172C20.6691 3.03894 21.3366 2.09977 21.0235 1.2008Z" fill="white"/>
</svg>
