<svg width="23" height="22" viewBox="0 0 23 22" fill="none" xmlns="http://www.w3.org/2000/svg">
    <ellipse cx="11.4583" cy="11" rx="11.4583" ry="11" fill="#E55C7A" />
    <path
        d="M5.63893 7.83802C5.42148 6.8979 6.13541 6 7.10035 6H16.7826C17.7364 6 18.4479 6.87845 18.2499 7.81143L16.3751 16.6448C16.228 17.3377 15.6162 17.8333 14.9078 17.8333H9.14343C8.44522 17.8333 7.83935 17.3516 7.68201 16.6713L6.55623 11.804L5.63893 7.83802Z"
        stroke="white" />
    <path
        d="M15.3254 8.02661L14.8774 12.4277L14.4293 16.8288M11.7387 8.05909L12.2038 16.7925M7.90889 7.906L9.78998 16.5643"
        stroke="white" />
    <rect x="8.6" y="4.93398" width="6.63333" height="1.13333" rx="0.566667" stroke="white"
        stroke-width="0.7" />
    <path
        d="M18.7933 6.45898C19.0694 6.45898 19.2933 6.23513 19.2933 5.95898C19.2933 5.68284 19.0694 5.45898 18.7933 5.45898V6.45898ZM4.58496 6.45898H18.7933V5.45898H4.58496V6.45898Z"
        fill="white" />
</svg>