<svg width="11" height="47" viewBox="0 0 11 47" fill="none" xmlns="http://www.w3.org/2000/svg">
<path d="M8.45446 0.794244C8.82568 0.871289 9.11278 0.956437 9.3127 1.04023C9.11278 1.12403 8.82568 1.20918 8.45446 1.28622C7.58988 1.46566 6.37253 1.58047 5.01203 1.58047C3.65153 1.58047 2.43418 1.46566 1.5696 1.28622C1.19838 1.20918 0.911282 1.12403 0.711363 1.04023C0.911282 0.956437 1.19838 0.871289 1.5696 0.794244C2.43418 0.614802 3.65153 0.5 5.01203 0.5C6.37253 0.5 7.58988 0.614802 8.45446 0.794244Z" stroke="#743582"/>
<mask id="path-2-inside-1_919_4828" fill="white">
<ellipse cx="5.01203" cy="2.83711" rx="5.01203" ry="1.04023"/>
</mask>
<path d="M6.02406 2.83711C6.02406 1.50877 6.69063 0.627108 7.07386 0.238415C7.44454 -0.137555 7.78415 -0.307757 7.86811 -0.348959C8.0521 -0.439242 8.05993 -0.409606 7.74321 -0.343872C7.17552 -0.226049 6.20779 -0.122659 5.01203 -0.122659V7.87734C6.58434 7.87734 8.12263 7.74787 9.36894 7.4892C9.95922 7.36669 10.701 7.17217 11.3923 6.83299C11.7299 6.66733 12.2664 6.36649 12.7706 5.85509C13.2874 5.33096 14.0241 4.30907 14.0241 2.83711H6.02406ZM5.01203 -0.122659C3.81627 -0.122659 2.84855 -0.226049 2.28086 -0.343872C1.96413 -0.409606 1.97196 -0.439242 2.15595 -0.348959C2.23991 -0.307757 2.57952 -0.137555 2.9502 0.238415C3.33343 0.627108 4 1.50877 4 2.83711H-4C-4 4.30907 -3.26331 5.33096 -2.74655 5.85509C-2.24234 6.36649 -1.7058 6.66733 -1.36821 6.83299C-0.676973 7.17217 0.0648457 7.36669 0.655124 7.4892C1.90143 7.74787 3.43972 7.87734 5.01203 7.87734V-0.122659ZM4 2.83711C4 4.16544 3.33343 5.04711 2.9502 5.4358C2.57952 5.81177 2.23991 5.98197 2.15595 6.02317C1.97196 6.11346 1.96413 6.08382 2.28086 6.01809C2.84855 5.90026 3.81627 5.79688 5.01203 5.79688V-2.20312C3.43972 -2.20312 1.90143 -2.07365 0.655124 -1.81498C0.0648457 -1.69247 -0.676973 -1.49796 -1.36821 -1.15877C-1.7058 -0.993117 -2.24234 -0.692275 -2.74655 -0.180872C-3.26331 0.343255 -4 1.36515 -4 2.83711H4ZM5.01203 5.79688C6.20779 5.79688 7.17552 5.90026 7.74321 6.01809C8.05993 6.08382 8.0521 6.11346 7.86811 6.02317C7.78415 5.98197 7.44454 5.81177 7.07386 5.4358C6.69063 5.04711 6.02406 4.16544 6.02406 2.83711H14.0241C14.0241 1.36515 13.2874 0.343255 12.7706 -0.180872C12.2664 -0.692275 11.7299 -0.993117 11.3923 -1.15877C10.701 -1.49796 9.95922 -1.69247 9.36894 -1.81498C8.12263 -2.07365 6.58434 -2.20312 5.01203 -2.20312V5.79688Z" fill="#743582" mask="url(#path-2-inside-1_919_4828)"/>
<line x1="10.4297" y1="1.04102" x2="10.4297" y2="2.83778" stroke="#743582"/>
<line x1="0.59375" y1="1.04102" x2="0.59375" y2="2.83778" stroke="#743582"/>
<rect x="0.09375" y="1.79688" width="9.83493" height="1.22937" fill="#743582"/>
<rect x="0.753906" y="2.83691" width="8.41643" height="0.472833" fill="#743582"/>
<line x1="0.5" y1="1.04102" x2="0.5" y2="2.83778" stroke="#743582"/>
<rect x="2.08008" y="3.12109" width="5.86313" height="0.378266" fill="#743582"/>
<rect y="1.22949" width="0.5674" height="0.756533" fill="#743582"/>
<rect y="1.22949" width="0.5674" height="0.756533" fill="#743582"/>
<rect y="1.22949" width="0.5674" height="0.756533" fill="#743582"/>
<rect x="9.17188" y="1.22949" width="0.756533" height="0.756533" fill="#743582"/>
<rect x="9.17188" y="1.22949" width="0.756533" height="0.756533" fill="#743582"/>
<rect x="9.17188" y="1.22949" width="0.756533" height="0.756533" fill="#743582"/>
<rect x="0.378906" y="1.51367" width="1.1348" height="0.472833" fill="#743582"/>
<rect x="7.84961" y="1.51367" width="2.08047" height="0.472833" fill="#743582"/>
<rect x="7.73828" y="2.26367" width="2.24203" height="13.2336" transform="rotate(8.47665 7.73828 2.26367)" fill="#743582"/>
<rect x="5.76953" y="15.1309" width="2.2696" height="30.4505" fill="#743582"/>
<rect x="5.39062" y="14.6572" width="3.21527" height="2.36417" rx="1.18208" fill="#743582"/>
<rect x="0.289062" y="14.4834" width="6.2414" height="2.17503" rx="1.08752" transform="rotate(6.51385 0.289062 14.4834)" fill="#743582"/>
<rect x="5.20117" y="44.1631" width="3.4044" height="2.837" rx="1.4185" fill="#743582"/>
</svg>
