<svg width="42" height="42" viewBox="0 0 42 42" fill="none" xmlns="http://www.w3.org/2000/svg">
<path d="M38.7028 21.0192C38.7339 16.9434 35.4207 13.5792 31.3449 13.5481L23.3377 13.4869C25.0935 14.4832 26.4689 16.0837 27.1481 17.9968L31.3106 18.0285C32.9294 18.0409 34.2346 19.3662 34.2222 20.985C34.2099 22.6037 32.8846 23.9089 31.2658 23.8966L26.0337 23.8566L22.5938 23.8303C20.9751 23.818 19.6699 22.4927 19.6822 20.8739L15.2017 20.8396C15.1937 21.8803 15.4029 22.8792 15.7864 23.7638C16.8088 26.1711 19.0502 27.9227 21.7362 28.2612C21.996 28.2921 22.2849 28.3232 22.5597 28.3108L27.9652 28.3521L31.2316 28.377C35.3218 28.4228 38.6714 25.124 38.7028 21.0192Z" fill="white"/>
<path d="M14.4432 23.7682L10.4541 23.7377C8.83525 23.7254 7.53005 22.4001 7.54246 20.7813C7.55482 19.1625 8.88007 17.8574 10.4989 17.8697L19.1708 17.936C20.7896 17.9483 22.0948 19.2736 22.0825 20.8924L26.563 20.9267C26.5709 19.886 26.3617 18.8871 25.9782 18.0025C24.9136 15.4649 22.4702 13.6539 19.5952 13.4729C19.4652 13.4575 19.3207 13.4564 19.2051 13.4555L10.5331 13.3892C6.45732 13.3581 3.09311 16.6713 3.06194 20.7472C3.03081 24.823 6.34402 28.1872 10.4198 28.2183L18.2973 28.2351C15.8519 26.6842 15.4511 26.1608 14.4432 23.7682Z" fill="white"/>
</svg>
