<svg width="169" height="247" viewBox="0 0 169 247" fill="none" xmlns="http://www.w3.org/2000/svg">
<path fill-rule="evenodd" clip-rule="evenodd" d="M41.2741 0.332187C37.3691 1.33419 35.3931 4.09119 34.3951 9.92919C33.7431 13.7462 33.8001 19.3452 34.5231 22.4632C34.7651 23.5042 34.9291 25.5392 34.9351 27.5602C34.9501 32.8092 36.0651 36.7172 38.2641 39.2192C38.8651 39.9032 39.6701 40.8862 40.0521 41.4032C41.0371 42.7352 43.0041 43.7202 45.3601 44.0622C46.9041 44.2852 52.9521 45.5692 54.8461 46.0742C55.2121 46.1722 55.5571 65.3252 55.4291 78.4632L55.3441 87.1292L44.9441 87.0372C32.0581 86.9232 30.9151 87.1652 28.7611 90.4632C28.1261 91.4342 27.7861 90.9812 25.8641 86.5962L24.2281 82.8632L24.7861 80.3292C26.0521 74.5812 26.7021 75.0152 18.3891 76.0542C14.8081 76.5022 10.7981 77.0022 9.47811 77.1662C8.15811 77.3302 5.51811 77.4792 3.61111 77.4972C-0.440889 77.5352 -0.317893 77.4142 0.368107 80.6862C0.589107 81.7362 0.839107 84.4722 0.925107 86.7652C1.19711 94.0082 1.97511 98.1902 3.43011 100.243C4.30111 101.472 7.00711 105.798 7.48611 106.729C7.67511 107.096 8.74011 108.565 9.85411 109.995C14.9591 116.55 16.0761 120.363 16.1221 131.396L16.1441 136.729L14.9821 140.041C13.5001 144.262 13.5081 145.776 15.0151 147.157C17.5041 149.438 20.4161 148.159 21.3581 144.369C21.9851 141.845 21.8381 136.396 23.4901 223.263C23.6451 231.403 23.8911 238.514 24.0361 239.066C24.8481 242.151 28.5821 243.451 31.1041 241.527C33.0921 240.011 33.0241 241.121 32.5421 217.796C32.4001 210.903 32.1621 198.783 32.0131 190.863C31.7671 177.739 31.4871 163.814 31.0651 143.663L30.9081 136.196L31.7301 133.707C33.5961 128.049 33.4541 127.25 34.1361 147.263C34.4491 156.429 34.9961 172.5 35.3521 182.976C35.9851 201.592 36.0131 202.05 36.6051 203.243C38.2581 206.571 43.1261 206.437 44.6661 203.021C45.1901 201.86 45.1211 199.252 43.0821 143.129C42.8791 137.556 42.6361 129.876 42.5411 126.063C42.4281 121.553 42.2351 118.586 41.9891 117.574C41.7811 116.719 41.6111 115.963 41.6111 115.894C41.6111 115.825 45.0611 115.834 49.2781 115.914C53.4941 115.995 64.0241 116.12 72.6781 116.193C131.251 116.684 130.821 116.675 130.519 117.359C130.413 117.599 130.124 118.516 129.877 119.396C129.629 120.276 129.175 121.539 128.866 122.203C128.324 123.37 128.297 123.987 128.033 140.87C127.883 150.472 127.697 161.929 127.621 166.329C127.186 191.345 127.141 201.043 127.456 201.996C128.405 204.874 132.279 205.907 134.646 203.915C136.24 202.574 136.227 202.72 136.543 182.463C136.703 172.269 136.946 157.509 137.083 149.663C137.221 141.816 137.336 133.542 137.339 131.276C137.345 126.485 137.519 126.386 138.717 130.491L139.526 133.263L139.343 188.063L139.159 242.863L139.799 244.049C141.497 247.195 146.053 247.193 147.673 244.045L148.28 242.863L148.463 195.663C148.585 164.019 148.731 148.757 148.907 149.355C149.513 151.415 151.656 152.49 153.723 151.769C156.441 150.822 156.713 148.04 154.84 140.329C154.077 137.187 154.517 134.64 157.193 126.729C158.012 124.309 158.935 121.429 159.244 120.329C159.553 119.229 160.077 117.789 160.408 117.129C160.739 116.469 161.209 115.236 161.453 114.387C161.996 112.504 164.827 106.252 165.899 104.57C166.329 103.896 166.799 102.696 166.943 101.904C167.715 97.6742 168.616 75.3192 168.049 74.4862C167.744 74.0372 152.4 73.7232 149.878 74.1132L148.411 74.3402V81.1352C148.411 88.6462 148.435 88.5052 146.76 90.9522C146.107 91.9062 145.157 93.5112 144.65 94.5182C143.555 96.6912 143.528 96.6822 142.019 93.6782C140.617 90.8872 139.616 89.8112 137.93 89.2822C137.241 89.0662 136.198 88.7082 135.611 88.4872C134.756 88.1662 133.046 88.0842 127.003 88.0742C120.644 88.0652 119.437 88.0022 119.312 87.6732C119.229 87.4592 119.263 78.3692 119.387 67.4732L119.611 47.6632L122.944 47.3392C124.778 47.1622 128.849 46.2162 131.049 46.0742C138.049 43.8323 137.049 44.7782 139.049 39.2192C140.024 36.5092 143.397 30.4132 142.033 18.4632C141.807 16.4832 141.618 13.7232 141.614 12.3292C141.599 7.53018 141.01 2.08228 136.049 0.332275C135.245 0.0482754 131.252 0.530275 124.549 0.332275C119.53 0.183275 113.543 0.411275 111.049 0.332275C108.556 0.252275 102.549 0.332275 97.0488 0.332245C91.6228 0.185245 80.6028 0.549245 73.0488 0.332245C53.4318 -0.231755 42.4521 0.0291873 41.2741 0.332187ZM89.0781 10.3632C93.0488 10.3322 95.9241 10.3212 96.1441 10.3632C96.6589 10.3632 98.2398 10.3522 100.049 10.3632C101.943 10.3752 102.049 10.3632 103.549 10.3632C103.5 10.4992 103.549 10.3322 101.049 13.3322L98.0961 16.3462L92.1871 16.3072C88.9371 16.2852 85.0488 16.3322 83.5488 16.3322H80.0488L77.5488 13.7852C74.8681 10.3632 74.8681 10.4602 74.8681 10.3632C74.8681 10.2662 77.0488 10.3632 79.0488 10.3632C81.0488 10.3632 85.3672 10.3921 89.0781 10.3632ZM72.2781 47.2892C74.7841 47.6402 78.8171 47.9152 83.7441 48.0712C87.9241 48.2042 92.7841 48.4352 94.5441 48.5842C98.1391 48.8892 102.369 48.6382 105.725 47.9222C107.572 47.5282 109.93 47.4932 110.291 47.8542C110.358 47.9212 110.332 56.9472 110.234 67.9142L110.056 87.8522L92.8341 87.6752C83.3611 87.5772 73.9911 87.4472 72.0111 87.3872C70.0311 87.3262 67.5411 87.2732 66.4781 87.2692L64.5441 87.2632V67.1432V47.0232L66.0781 46.9262C66.9211 46.8732 67.7911 46.8122 68.0111 46.7892C68.2311 46.7672 70.1511 46.9922 72.2781 47.2892ZM160.628 84.5962C160.601 86.8692 160.439 91.1892 160.269 94.1962L159.959 99.6632L158.814 102.063C156.611 106.679 155.253 109.823 154.663 111.669C154.337 112.692 153.795 114.078 153.46 114.748C153.125 115.419 152.66 116.701 152.428 117.598C151.947 119.452 148.338 130.398 148.016 130.975C147.664 131.608 147.026 130.017 146.41 126.967C145.475 122.345 144.845 120.614 143.605 119.263L142.993 118.596L144.531 115.454C146.443 111.549 148.142 106.518 147.922 105.416C147.3 102.306 148.414 99.3352 152.111 94.2512C154.782 90.5782 154.992 89.8812 154.895 84.9962L154.811 80.7292L156.544 80.5692C157.498 80.4822 158.818 80.4222 159.478 80.4362L160.678 80.4632L160.628 84.5962ZM18.2391 82.3092C17.9871 84.1512 21.3211 91.8892 23.7591 95.1182L24.8791 96.6012L24.1981 97.5982C23.8241 98.1472 22.6711 99.4802 21.6371 100.56C19.3321 102.966 18.0601 105.315 18.3061 106.711C18.7141 109.023 22.7721 116.134 24.7601 118.021L25.5591 118.78L24.8791 120.091C24.5051 120.812 23.9991 122.255 23.7541 123.297L23.3081 125.193L22.8481 122.294C21.6151 114.519 20.4141 111.796 15.3181 105.226C14.4231 104.073 13.4861 102.731 13.2341 102.243C12.9831 101.756 11.8991 100.048 10.8251 98.4492C8.66711 95.2332 8.75011 95.5192 8.14311 89.2592C7.41311 81.7382 7.33411 81.9602 10.7781 81.9092C11.5291 81.8982 13.1041 81.7332 14.2781 81.5412C15.4511 81.3502 16.8591 81.1792 17.4061 81.1612L18.4011 81.1292L18.2391 82.3092ZM102.005 95.6738C116.54 98.7318 100.472 106.602 84.7391 106.516C76.3181 106.47 62.5049 103.802 62.5049 99.6632C62.5049 97.2682 73.4191 94.2652 77.3681 93.5492C78.2831 93.3832 92.0119 93.7868 85.8681 93.5492C96.0119 93.5492 99.9769 95.2478 102.005 95.6738Z" fill="#743582"/>
</svg>
