<svg width="36" height="35" viewBox="0 0 36 35" fill="none" xmlns="http://www.w3.org/2000/svg">
<path d="M17.5983 0.044857C17.3505 0.109818 17.0742 0.251038 16.983 0.355541C16.9488 0.397907 16.023 2.1914 14.9291 4.34077C12.4849 9.14791 12.3453 9.41623 12.1858 9.6563C12.0063 9.92179 11.861 10.0461 11.4195 10.3087C11.2771 10.3906 11.1859 10.4217 10.9779 10.4528C10.8327 10.4754 9.93246 10.6081 8.9753 10.7465C1.44901 11.848 1.25815 11.8763 1.07013 11.9497C0.753927 12.0712 0.597249 12.1615 0.423478 12.3169C0.121515 12.5852 -0.0180722 12.975 0.00186877 13.4692C0.0104149 13.6924 0.0218095 13.7376 0.107271 13.8788C0.158547 13.9663 0.21837 14.0737 0.24116 14.116C0.281042 14.1895 1.44901 15.3362 4.13249 17.9233C4.41452 18.1945 4.91304 18.6803 5.24349 18.9994C5.57109 19.3186 6.27187 19.9936 6.79604 20.502C7.75035 21.4256 7.75035 21.4256 7.85576 21.66C7.91558 21.7899 7.9811 21.982 8.00389 22.0893C8.04662 22.2814 8.04377 22.304 7.94976 22.866C7.89849 23.1852 7.75605 24.041 7.63641 24.7725C7.51961 25.5012 7.40851 26.1508 7.39142 26.213C7.37432 26.2751 7.35153 26.3711 7.33729 26.4248C7.32305 26.4784 7.28601 26.7016 7.25183 26.9191C7.22049 27.1365 7.10939 27.7833 7.00969 28.3595C6.76185 29.7717 6.28327 32.6893 6.28327 32.7797C6.28327 32.8955 6.41146 33.1356 6.62796 33.418C6.85301 33.7146 6.93562 33.788 7.18061 33.901C7.34299 33.9744 7.37432 33.9801 7.7532 33.9801C8.14063 33.9801 8.15772 33.9772 8.32294 33.8953C8.81007 33.6496 15.8606 29.9751 16.7095 29.5232C17.2109 29.2577 17.3306 29.2068 17.5471 29.1616C17.8547 29.0967 18.094 29.0938 18.3191 29.1503C18.4615 29.1842 19.2079 29.5203 19.3588 29.6192C19.3816 29.6333 19.544 29.7152 19.7149 29.8028C19.8887 29.8875 20.1878 30.0457 20.3844 30.153C20.5809 30.2603 20.7576 30.3479 20.7803 30.3479C20.8031 30.3507 20.843 30.3676 20.8658 30.3902C20.9171 30.4326 27.056 33.5931 27.6058 33.8558C27.8907 33.9942 27.9733 34.0224 28.0958 34.0224C28.2952 34.0224 28.771 33.884 28.9932 33.7598C29.3834 33.5451 29.5601 33.3079 29.6427 32.9068C29.6826 32.7091 29.6826 32.6526 29.6512 32.4549C29.5942 32.1188 28.3636 25.0775 28.1158 23.671C27.9961 23.0016 27.9078 22.4113 27.9135 22.3576C27.9221 22.304 27.9733 22.1289 28.0275 21.9679C28.2041 21.4595 28.338 21.2731 28.9875 20.6489C30.2409 19.44 31.7593 17.977 35.1407 14.7205C35.4768 14.3956 35.7816 14.0821 35.8187 14.0257C36.0551 13.6415 36.0608 13.1049 35.8329 12.6615C35.7019 12.4016 35.323 12.0966 34.9812 11.9723C34.8701 11.9356 34.5766 11.8735 34.3146 11.8339C33.2862 11.6814 32.3945 11.5543 29.8278 11.1871C28.3551 10.9781 26.8481 10.7606 26.4806 10.707C26.1131 10.6561 25.6516 10.5912 25.4579 10.5658C24.911 10.4951 24.5919 10.3765 24.2159 10.0997C24.1076 10.0206 23.9965 9.94156 23.9709 9.93027C23.9481 9.91615 23.8911 9.85118 23.8456 9.7834C23.8 9.71561 23.7345 9.63088 23.7003 9.59134C23.6661 9.5518 23.31 8.8457 22.9083 8.0238C22.5067 7.19907 22.1335 6.45625 22.0822 6.37152C22.0281 6.28679 21.8629 5.94221 21.709 5.60893C21.558 5.27565 21.1877 4.51871 20.8857 3.92841C20.5866 3.33811 20.2533 2.66308 20.1451 2.43148C19.8289 1.74232 19.7235 1.53896 19.5696 1.31019C19.4899 1.19156 19.3816 0.991034 19.3304 0.86676C19.2193 0.598442 19.1224 0.476991 18.8973 0.313175C18.5213 0.0363837 18.0142 -0.0681191 17.5983 0.044857Z" fill="url(#paint0_linear_108_17)"/>
<mask id="mask0_108_17" style="mask-type:alpha" maskUnits="userSpaceOnUse" x="11" y="10" width="15" height="16">
<path d="M17.7621 10.0711C18.0611 10.1615 18.3495 10.4044 18.5604 10.749C18.758 11.071 18.806 11.2263 18.806 11.5596C18.8034 12.0228 18.7393 12.3194 18.6031 12.503C18.4322 12.7289 17.9089 13.0989 17.7567 13.0989C17.6927 13.0989 17.6766 13.3926 17.6766 14.6241V15.6324L17.8983 15.6635C18.0344 15.6861 18.5444 15.6974 19.2519 15.6974L20.3867 15.7002L20.4614 15.7651L20.5362 15.8301L20.4935 16.3922C20.4641 16.7848 20.4401 16.9655 20.4134 16.9938C20.384 17.0248 20.1437 17.0333 19.017 17.0305H17.658L17.6393 17.2847C17.6313 17.4259 17.6232 17.6151 17.6232 17.7083V17.8721H19.5083C20.6697 17.8721 21.4093 17.8834 21.4387 17.9004C21.4654 17.9145 22.0207 18.8946 22.6722 20.0752C23.5907 21.7444 23.863 22.2189 23.895 22.2076C23.9191 22.1991 24.2475 22.0071 24.6239 21.7811C25.0004 21.558 25.3342 21.3744 25.3635 21.3744C25.4036 21.3744 25.4543 21.4507 25.5825 21.7049C25.6733 21.8884 25.7881 22.0946 25.8334 22.1652C25.9456 22.3291 25.9669 22.4279 25.9055 22.4816C25.8388 22.5409 25.4917 22.7527 25.2194 22.9024C25.0885 22.973 24.632 23.2442 24.2074 23.5012C23.7829 23.761 23.4278 23.9644 23.4171 23.9587C23.4038 23.9503 23.305 23.7836 23.1955 23.5859C22.6722 22.6397 21.4707 20.4565 21.3399 20.2164C21.2598 20.0695 21.0969 19.7786 20.9794 19.5724L20.7658 19.1968L18.6405 19.1996L16.5152 19.2053L16.4538 19.129L16.395 19.0527L16.4084 17.4259C16.4191 16.5306 16.4298 15.1466 16.4351 14.3529L16.4431 12.9097L16.2642 12.7684C16.1307 12.6639 16.056 12.5736 15.9705 12.4267C15.7516 12.0426 15.7062 11.8223 15.7489 11.3732C15.7863 11.006 15.8557 10.8676 16.1654 10.54C16.4191 10.2717 16.5152 10.2067 16.8489 10.0711C17.0332 9.99771 17.0706 9.99206 17.3162 10.0062C17.463 10.0118 17.6633 10.0429 17.7621 10.0711ZM16.1414 15.1664C16.1521 15.2342 16.1521 15.5138 16.1467 15.7906C16.1334 16.3583 16.1254 16.3837 15.9492 16.3922C15.6234 16.4063 15.1775 16.4684 15.0227 16.5193C14.5421 16.6746 13.976 17.0051 13.5702 17.3638C13.2685 17.6292 12.7559 18.3438 12.561 18.7647C12.4221 19.0669 12.2699 19.6911 12.2379 20.0893C12.1952 20.609 12.294 21.5015 12.4328 21.8687C12.569 22.2358 12.8173 22.7245 12.9614 22.9194C13.1831 23.2159 13.685 23.6735 14.1549 24.0011C14.4887 24.2355 14.6916 24.3259 15.2336 24.4841C15.5086 24.5632 15.6074 24.5773 15.9465 24.5886C16.339 24.5999 16.4938 24.5829 16.9424 24.4671C17.0305 24.4445 17.1453 24.4191 17.196 24.4135C17.3376 24.3937 17.5512 24.3033 17.9864 24.0745C18.3575 23.8768 18.4002 23.8486 18.6405 23.5972C18.782 23.4532 18.9209 23.3148 18.9476 23.2922C19.0437 23.2187 19.3053 22.8968 19.4015 22.7358C19.5029 22.5691 19.6498 22.2387 19.7833 21.8771C19.9088 21.5382 19.9808 21.1936 19.9889 20.8943C19.9915 20.7474 19.9969 20.5836 19.9969 20.5327L19.9995 20.4424L20.5949 20.448L21.1877 20.4565L21.1957 20.7474C21.2037 21.044 21.1957 21.1146 21.0942 21.6004C20.9848 22.1455 20.6991 22.9137 20.4828 23.2526C19.9995 24.0096 19.7245 24.3824 19.5216 24.5632C19.4522 24.6253 19.3053 24.7326 19.1959 24.8004C19.0864 24.8682 18.8568 25.0235 18.6832 25.1422C18.3415 25.3794 18.2667 25.4133 17.658 25.5969C16.7688 25.868 16.2402 25.9217 15.6074 25.8087C14.7957 25.6675 14.0828 25.4161 13.5141 25.0715C13.0282 24.7806 12.5129 24.2892 12.035 23.6622C11.808 23.3628 11.7359 23.2413 11.5597 22.8572C11.4449 22.6087 11.3167 22.2895 11.2713 22.1511C11.1672 21.8207 11.0577 21.2445 11.0257 20.8378C10.991 20.4 10.991 19.6995 11.0284 19.4792C11.1218 18.9256 11.3461 18.3862 11.808 17.6067C11.9789 17.3157 12.5236 16.6068 12.6864 16.4599C13.0389 16.1436 13.111 16.0899 13.5328 15.799C13.709 15.6776 14.3125 15.4064 14.6329 15.3076C15.1749 15.1381 15.5807 15.059 15.9465 15.0506L16.1254 15.0477L16.1414 15.1664Z" fill="#594088"/>
</mask>
<g mask="url(#mask0_108_17)">
<rect x="11" y="10" width="7.4981" height="16" fill="white"/>
</g>
<defs>
<linearGradient id="paint0_linear_108_17" x1="37" y1="22" x2="-4.31792e-07" y2="22" gradientUnits="userSpaceOnUse">
<stop offset="0.510517" stop-color="#733381" stop-opacity="0.32"/>
<stop offset="0.510617" stop-color="#594088"/>
</linearGradient>
</defs>
</svg>
