<svg width="36" height="34" viewBox="0 0 36 34" fill="none" xmlns="http://www.w3.org/2000/svg">
<path d="M17.5983 0.0448112C17.3505 0.10973 17.0742 0.250858 16.983 0.355293C16.9488 0.397633 16.023 2.18995 14.9291 4.3379C12.4849 9.14187 12.3453 9.41001 12.1858 9.64993C12.0063 9.91525 11.861 10.0394 11.4195 10.3019C11.2771 10.3838 11.1859 10.4148 10.9779 10.4459C10.8327 10.4685 9.93246 10.6011 8.9753 10.7394C1.44901 11.8402 1.25815 11.8684 1.07013 11.9418C0.753928 12.0632 0.597249 12.1535 0.423478 12.3088C0.121514 12.5769 -0.0180722 12.9664 0.00186877 13.4604C0.0104149 13.6833 0.0218097 13.7285 0.107271 13.8696C0.158548 13.9571 0.218371 14.0644 0.24116 14.1067C0.281042 14.1801 1.44901 15.3261 4.13249 17.9115C4.41452 18.1825 4.91304 18.6679 5.24349 18.9869C5.57109 19.3058 6.27187 19.9804 6.79604 20.4885C7.75035 21.4115 7.75035 21.4115 7.85576 21.6457C7.91558 21.7756 7.9811 21.9675 8.00389 22.0748C8.04662 22.2667 8.04377 22.2893 7.94976 22.851C7.89849 23.1699 7.75605 24.0251 7.6364 24.7562C7.51961 25.4844 7.40851 26.1336 7.39142 26.1957C7.37432 26.2578 7.35153 26.3537 7.33729 26.4074C7.32305 26.461 7.28601 26.684 7.25183 26.9013C7.22049 27.1186 7.10939 27.765 7.00969 28.3408C6.76185 29.7521 6.28327 32.6678 6.28327 32.7581C6.28327 32.8738 6.41146 33.1137 6.62796 33.396C6.85301 33.6923 6.93562 33.7657 7.18061 33.8786C7.34299 33.952 7.37432 33.9577 7.7532 33.9577C8.14063 33.9577 8.15772 33.9548 8.32294 33.873C8.81007 33.6274 15.8606 29.9553 16.7095 29.5037C17.2109 29.2384 17.3306 29.1876 17.5471 29.1424C17.8547 29.0775 18.094 29.0747 18.3191 29.1311C18.4615 29.165 19.2079 29.5009 19.3588 29.5997C19.3816 29.6138 19.544 29.6956 19.7149 29.7831C19.8887 29.8678 20.1878 30.0259 20.3844 30.1331C20.5809 30.2404 20.7576 30.3279 20.7803 30.3279C20.8031 30.3307 20.843 30.3476 20.8658 30.3702C20.9171 30.4125 27.056 33.571 27.6058 33.8335C27.8907 33.9718 27.9733 34 28.0958 34C28.2952 34 28.771 33.8617 28.9932 33.7375C29.3834 33.523 29.5601 33.2859 29.6427 32.8851C29.6826 32.6875 29.6826 32.6311 29.6512 32.4335C29.5942 32.0976 28.3636 25.061 28.1158 23.6554C27.9961 22.9864 27.9078 22.3965 27.9135 22.3429C27.9221 22.2893 27.9733 22.1143 28.0275 21.9534C28.2041 21.4453 28.338 21.259 28.9875 20.6353C30.2409 19.4272 31.7593 17.9651 35.1407 14.7107C35.4768 14.3862 35.7816 14.0728 35.8187 14.0164C36.0551 13.6325 36.0608 13.0963 35.8329 12.6531C35.7019 12.3934 35.323 12.0886 34.9812 11.9644C34.8701 11.9277 34.5766 11.8656 34.3146 11.8261C33.2862 11.6737 32.3945 11.5467 29.8278 11.1797C28.3551 10.9709 26.8481 10.7535 26.4806 10.6999C26.1131 10.6491 25.6516 10.5842 25.4579 10.5588C24.911 10.4882 24.5919 10.3697 24.2159 10.0931C24.1076 10.014 23.9965 9.935 23.9709 9.92371C23.9481 9.9096 23.8911 9.84468 23.8456 9.77694C23.8 9.7092 23.7345 9.62452 23.7003 9.58501C23.6661 9.54549 23.31 8.83986 22.9083 8.0185C22.5067 7.19431 22.1335 6.45198 22.0822 6.36731C22.0281 6.28263 21.8629 5.93828 21.709 5.60522C21.558 5.27216 21.1877 4.51572 20.8857 3.92581C20.5866 3.3359 20.2533 2.66131 20.1451 2.42986C19.8289 1.74116 19.7235 1.53794 19.5696 1.30931C19.4899 1.19077 19.3816 0.990364 19.3304 0.866173C19.2193 0.59803 19.1224 0.476662 18.8973 0.312954C18.5213 0.0363464 18.0142 -0.0680885 17.5983 0.0448112ZM17.7977 10.1439C18.1168 10.2342 18.4245 10.4769 18.6495 10.8213C18.8603 11.1431 18.9116 11.2983 18.9116 11.6313C18.9087 12.0942 18.8404 12.3906 18.6951 12.5741C18.5128 12.7999 17.9544 13.1696 17.792 13.1696C17.7237 13.1696 17.7066 13.4632 17.7066 14.6938V15.7015L17.943 15.7325C18.0883 15.7551 18.6324 15.7664 19.3873 15.7664L20.598 15.7692L20.6778 15.8341L20.7576 15.899L20.712 16.4607C20.6806 16.8531 20.655 17.0337 20.6265 17.0619C20.5952 17.093 20.3388 17.1014 19.1366 17.0986H17.6866L17.6667 17.3526C17.6582 17.4938 17.6496 17.6829 17.6496 17.776V17.9397H19.6608C20.9 17.9397 21.6891 17.951 21.7204 17.968C21.7489 17.9821 22.3414 18.9615 23.0365 20.1413C24.0165 21.8094 24.307 22.2836 24.3412 22.2723C24.3669 22.2639 24.7173 22.0719 25.1189 21.8461C25.5206 21.6232 25.8767 21.4397 25.908 21.4397C25.9507 21.4397 26.0049 21.5159 26.1416 21.7699C26.2385 21.9534 26.361 22.1594 26.4094 22.23C26.529 22.3937 26.5518 22.4925 26.4863 22.5461C26.4151 22.6054 26.0448 22.8171 25.7542 22.9667C25.6146 23.0372 25.1275 23.3082 24.6745 23.5651C24.2216 23.8247 23.8427 24.028 23.8313 24.0223C23.8171 24.0138 23.7117 23.8473 23.5949 23.6497C23.0365 22.7042 21.7546 20.5224 21.615 20.2824C21.5296 20.1357 21.3558 19.8449 21.2304 19.6389L21.0025 19.2635L18.735 19.2663L16.4674 19.272L16.4019 19.1958L16.3392 19.1196L16.3535 17.4938C16.3648 16.599 16.3762 15.216 16.3819 14.4228L16.3905 12.9805L16.1996 12.8394C16.0572 12.735 15.9774 12.6446 15.8863 12.4979C15.6527 12.114 15.6042 11.8938 15.6498 11.4451C15.6897 11.0781 15.7638 10.9398 16.0942 10.6124C16.3648 10.3443 16.4674 10.2794 16.8235 10.1439C17.02 10.0705 17.0599 10.0648 17.322 10.079C17.4787 10.0846 17.6923 10.1156 17.7977 10.1439ZM16.0686 15.2357C16.08 15.3035 16.08 15.5829 16.0743 15.8595C16.06 16.4268 16.0515 16.4523 15.8635 16.4607C15.5159 16.4748 15.0402 16.5369 14.875 16.5877C14.3622 16.743 13.7583 17.0732 13.3253 17.4317C13.0034 17.697 12.4564 18.4111 12.2485 18.8317C12.1003 19.1337 11.938 19.7575 11.9038 20.1554C11.8582 20.6748 11.9636 21.5667 12.1117 21.9336C12.257 22.3006 12.5219 22.7889 12.6758 22.9836C12.9122 23.28 13.4478 23.7372 13.9491 24.0647C14.3052 24.2989 14.5217 24.3892 15.1 24.5473C15.3934 24.6263 15.4988 24.6404 15.8606 24.6517C16.2794 24.663 16.4446 24.6461 16.9232 24.5304C17.0172 24.5078 17.1397 24.4824 17.1938 24.4767C17.3448 24.457 17.5727 24.3667 18.037 24.138C18.433 23.9405 18.4786 23.9122 18.735 23.661C18.886 23.5171 19.0341 23.3788 19.0626 23.3562C19.1651 23.2828 19.4443 22.961 19.5469 22.8002C19.6551 22.6336 19.8118 22.3034 19.9542 21.9421C20.0881 21.6034 20.165 21.259 20.1736 20.9599C20.1764 20.8131 20.1821 20.6494 20.1821 20.5986L20.185 20.5082L20.8202 20.5139L21.4526 20.5224L21.4612 20.8131C21.4697 21.1094 21.4612 21.18 21.3529 21.6655C21.2361 22.2102 20.9313 22.978 20.7006 23.3167C20.185 24.0731 19.8915 24.4457 19.675 24.6263C19.601 24.6884 19.4443 24.7957 19.3275 24.8634C19.2107 24.9312 18.9657 25.0864 18.7806 25.205C18.4159 25.4421 18.3362 25.4759 17.6866 25.6594C16.738 25.9304 16.174 25.984 15.4988 25.8711C14.6328 25.7299 13.8722 25.4787 13.2655 25.1344C12.747 24.8437 12.1972 24.3525 11.6873 23.7259C11.4451 23.4268 11.3682 23.3054 11.1802 22.9215C11.0577 22.6731 10.921 22.3542 10.8725 22.2159C10.7614 21.8856 10.6446 21.3098 10.6105 20.9034C10.5734 20.4659 10.5734 19.7659 10.6133 19.5458C10.713 18.9925 10.9523 18.4534 11.4451 17.6744C11.6274 17.3837 12.2086 16.6752 12.3824 16.5285C12.7584 16.2123 12.8353 16.1587 13.2854 15.868C13.4734 15.7466 14.1172 15.4757 14.4591 15.3769C15.0373 15.2075 15.4704 15.1285 15.8606 15.12L16.0515 15.1172L16.0686 15.2357Z" fill="#594088"/>
</svg>
