<svg width="33" height="34" viewBox="0 0 33 34" fill="none" xmlns="http://www.w3.org/2000/svg">
<rect x="25.4688" y="19.3379" width="2.56757" height="3.45946" rx="0.5" stroke="#E55C7A"/>
<rect x="14.7695" y="10.4189" width="2.56757" height="3.45946" rx="0.5" stroke="#E55C7A"/>
<rect x="4.06641" y="19.3379" width="2.56757" height="3.45946" rx="0.5" stroke="#E55C7A"/>
<path d="M23.5 15.5H30.5V33.5H23.5V15.5Z" stroke="#E55C7A"/>
<path d="M2.5 15.5H9.5V33.5H2.5V15.5Z" stroke="#E55C7A"/>
<rect x="20.5117" y="17.0537" width="2.67568" height="0.891892" fill="#E55C7A"/>
<rect x="14.2695" y="17.0537" width="3.56757" height="0.891892" fill="#E55C7A"/>
<rect x="9.8125" y="17.0537" width="2.67568" height="0.891892" fill="#E55C7A"/>
<rect x="12.4844" y="17.9443" width="2.67568" height="0.891892" transform="rotate(89.9064 12.4844 17.9443)" fill="#E55C7A"/>
<rect x="12.4844" y="17.9443" width="2.67568" height="0.891892" transform="rotate(89.9064 12.4844 17.9443)" fill="#E55C7A"/>
<rect x="12.4844" y="17.9443" width="2.67568" height="0.891892" transform="rotate(89.9064 12.4844 17.9443)" fill="#E55C7A"/>
<rect x="21.4062" y="17.9453" width="2.67568" height="0.891892" transform="rotate(89.9064 21.4062 17.9453)" fill="#E55C7A"/>
<rect x="17.8359" y="17.9453" width="2.67568" height="0.891892" transform="rotate(89.9064 17.8359 17.9453)" fill="#E55C7A"/>
<rect x="15.1641" y="17.9453" width="2.67568" height="0.891892" transform="rotate(89.9064 15.1641 17.9453)" fill="#E55C7A"/>
<rect x="12.4844" y="17.9443" width="2.67568" height="0.891892" transform="rotate(89.9064 12.4844 17.9443)" fill="#E55C7A"/>
<rect x="17.8359" y="19.7295" width="2.67568" height="0.891892" fill="#E55C7A"/>
<rect x="12.4883" y="19.7295" width="1.78378" height="0.891892" fill="#E55C7A"/>
<path d="M1.64272 15.5465L5.7973 8.35059L9.95188 15.5465H1.64272Z" stroke="#E55C7A"/>
<path d="M23.049 15.5465L27.2035 8.35059L31.3581 15.5465H23.049Z" stroke="#E55C7A"/>
<path d="M11.6059 8.86486L16.5017 0.950438L21.3975 8.86486H11.6059Z" stroke="#E55C7A"/>
<line x1="8.91797" y1="33.5" x2="24.0801" y2="33.5" stroke="#E55C7A"/>
<path d="M12.4885 33.1077C12.4885 29.9276 12.3609 23.2969 16.9477 23.2969C20.3881 23.2969 20.5153 30.7522 20.5155 33.1077" stroke="#E55C7A" stroke-linecap="round"/>
<line x1="16.7305" y1="23.2969" x2="16.7305" y2="33.1077" stroke="#E55C7A"/>
<rect x="11.5938" y="8.13477" width="0.891892" height="9.81081" fill="#E55C7A"/>
<rect x="20.5117" y="8.13477" width="0.891892" height="9.81081" fill="#E55C7A"/>
</svg>
