<svg width="18" height="20" viewBox="0 0 18 20" fill="none" xmlns="http://www.w3.org/2000/svg">
<path d="M1.66 20C1.45467 20 1.28667 19.9347 1.156 19.804C1.02533 19.6733 0.96 19.5053 0.96 19.3V1.1C0.96 0.894666 1.02533 0.726666 1.156 0.595999C1.28667 0.465332 1.45467 0.399999 1.66 0.399999H10.2C11.8053 0.399999 13.1213 0.623999 14.148 1.072C15.1747 1.52 15.9307 2.164 16.416 3.004C16.92 3.82533 17.172 4.80533 17.172 5.944C17.172 6.616 17.0413 7.21333 16.78 7.736C16.5373 8.24 16.2293 8.66 15.856 8.996C15.5013 9.332 15.1653 9.57467 14.848 9.724C15.5573 10.06 16.1827 10.6107 16.724 11.376C17.284 12.1413 17.564 13.0373 17.564 14.064C17.564 15.296 17.284 16.36 16.724 17.256C16.1827 18.1333 15.38 18.8147 14.316 19.3C13.2707 19.7667 11.9827 20 10.452 20H1.66ZM5.972 16.36H9.892C10.6947 16.36 11.3013 16.1267 11.712 15.66C12.1227 15.1933 12.328 14.6613 12.328 14.064C12.328 13.4107 12.1133 12.86 11.684 12.412C11.2733 11.964 10.676 11.74 9.892 11.74H5.972V16.36ZM5.972 8.184H9.64C10.4053 8.184 10.9747 7.988 11.348 7.596C11.74 7.204 11.936 6.7 11.936 6.084C11.936 5.48667 11.74 5.00133 11.348 4.628C10.9747 4.236 10.4053 4.04 9.64 4.04H5.972V8.184Z" fill="white"/>
</svg>
