<svg width="29" height="23" viewBox="0 0 29 23" fill="none" xmlns="http://www.w3.org/2000/svg">
<path d="M24.0012 16.7575L24.6701 18.0029C24.8548 18.3468 24.7028 18.764 24.3307 18.9347L21.253 20.3636C20.4985 20.7098 19.5814 20.4155 19.2225 19.7094L16.2711 13.9041H9.70434C8.95565 13.9041 8.32092 13.3953 8.215 12.7103C6.6218 2.40315 6.71334 3.04344 6.69547 2.78082C6.69547 1.20105 8.12083 -0.0710431 9.84782 0.00308321C11.412 0.0702141 12.6709 1.25902 12.7121 2.70574C12.7529 4.13669 11.6237 5.33114 10.1448 5.53171L10.3644 6.9521H16.4743C16.8897 6.9521 17.2265 7.26334 17.2265 7.64731V9.03772C17.2265 9.42169 16.8897 9.73293 16.4743 9.73293H10.7942L11.0092 11.1233H17.2265C17.5121 11.1233 17.7919 11.1985 18.033 11.34C18.2741 11.4815 18.4667 11.6836 18.5881 11.9225L21.2921 17.2411L22.993 16.4438C23.3651 16.2731 23.8165 16.4136 24.0012 16.7575ZM15.3158 15.2945H14.1637C13.7975 17.6497 11.6001 19.4658 8.95212 19.4658C6.0487 19.4658 3.6866 17.2827 3.6866 14.5993C3.6866 12.7959 4.75353 11.2185 6.33459 10.3779C6.16008 9.24967 6.01283 8.29833 5.88853 7.49567C2.83829 8.62333 0.677734 11.3824 0.677734 14.5993C0.677734 18.8161 4.3896 22.2466 8.95212 22.2466C12.331 22.2466 15.2428 20.3648 16.5265 17.676L15.3158 15.2945Z" fill="#733381"/>
<line x1="27.1875" y1="10.4996" x2="27.2607" y2="21.4385" stroke="#743582"/>
<line x1="28.7631" y1="21.9277" x2="25.7632" y2="21.9478" stroke="#743582"/>
<path d="M28.6895 10.6992L25.6895 10.7193" stroke="#743582"/>
</svg>
