<svg width="28" height="26" viewBox="0 0 28 26" fill="none" xmlns="http://www.w3.org/2000/svg">
<path d="M25.9309 16.7575L26.5998 18.0029C26.7845 18.3468 26.6325 18.764 26.2604 18.9347L23.1827 20.3636C22.4282 20.7098 21.5111 20.4155 21.1522 19.7094L18.2008 13.9041H11.634C10.8853 13.9041 10.2506 13.3953 10.1447 12.7103C8.55149 2.40315 8.64302 3.04344 8.62516 2.78082C8.62516 1.20105 10.0505 -0.0710431 11.7775 0.00308321C13.3417 0.0702141 14.6006 1.25902 14.6418 2.70574C14.6826 4.13669 13.5534 5.33114 12.0745 5.53171L12.294 6.9521H18.404C18.8194 6.9521 19.1562 7.26334 19.1562 7.64731V9.03772C19.1562 9.42169 18.8194 9.73293 18.404 9.73293H12.7239L12.9388 11.1233H19.1562C19.4418 11.1233 19.7216 11.1985 19.9627 11.34C20.2038 11.4815 20.3963 11.6836 20.5178 11.9225L23.2218 17.2411L24.9226 16.4438C25.2948 16.2731 25.7462 16.4136 25.9309 16.7575ZM17.2455 15.2945H16.0934C15.7272 17.6497 13.5298 19.4658 10.8818 19.4658C7.97839 19.4658 5.61629 17.2827 5.61629 14.5993C5.61629 12.7959 6.68322 11.2185 8.26428 10.3779C8.08977 9.24967 7.94252 8.29833 7.81822 7.49567C4.76798 8.62333 2.60742 11.3824 2.60742 14.5993C2.60742 18.8161 6.31928 22.2466 10.8818 22.2466C14.2607 22.2466 17.1725 20.3648 18.4562 17.676L17.2455 15.2945Z" fill="#733381"/>
<line x1="0.607422" y1="24.5" x2="26.6074" y2="24.5" stroke="#743582"/>
<line x1="27.1074" y1="23" x2="27.1074" y2="26" stroke="#743582"/>
<path d="M1.10742 23L1.10742 26" stroke="#743582"/>
</svg>
