<svg width="29" height="27" viewBox="0 0 29 27" fill="none" xmlns="http://www.w3.org/2000/svg">
<path d="M27.9309 16.7575L28.5998 18.0029C28.7845 18.3468 28.6325 18.764 28.2604 18.9347L25.1827 20.3636C24.4282 20.7098 23.5111 20.4155 23.1522 19.7094L20.2008 13.9041H13.634C12.8853 13.9041 12.2506 13.3953 12.1447 12.7103C10.5515 2.40315 10.643 3.04344 10.6252 2.78082C10.6252 1.20105 12.0505 -0.0710431 13.7775 0.00308321C15.3417 0.0702141 16.6006 1.25902 16.6418 2.70574C16.6826 4.13669 15.5534 5.33114 14.0745 5.53171L14.294 6.9521H20.404C20.8194 6.9521 21.1562 7.26334 21.1562 7.64731V9.03772C21.1562 9.42169 20.8194 9.73293 20.404 9.73293H14.7239L14.9388 11.1233H21.1562C21.4418 11.1233 21.7216 11.1985 21.9627 11.34C22.2038 11.4815 22.3963 11.6836 22.5178 11.9225L25.2218 17.2411L26.9226 16.4438C27.2948 16.2731 27.7462 16.4136 27.9309 16.7575ZM19.2455 15.2945H18.0934C17.7272 17.6497 15.5298 19.4658 12.8818 19.4658C9.97839 19.4658 7.61629 17.2827 7.61629 14.5993C7.61629 12.7959 8.68322 11.2185 10.2643 10.3779C10.0898 9.24967 9.94252 8.29833 9.81822 7.49567C6.76798 8.62333 4.60742 11.3824 4.60742 14.5993C4.60742 18.8161 8.31928 22.2466 12.8818 22.2466C16.2607 22.2466 19.1725 20.3648 20.4562 17.676L19.2455 15.2945Z" fill="#733381"/>
<line x1="1.8876" y1="14.7813" x2="7.9006" y2="24.6226" stroke="#743582"/>
<line x1="9.44233" y1="24.2675" x2="6.88235" y2="25.8316" stroke="#743582"/>
<path d="M3.2832 14.1895L0.723227 15.7536" stroke="#743582"/>
</svg>
