<svg width="34" height="27" viewBox="0 0 34 27" fill="none" xmlns="http://www.w3.org/2000/svg">
<rect x="27.5" y="10.5" width="3" height="4" rx="0.5" stroke="white"/>
<rect x="3.5" y="10.5" width="3" height="4" rx="0.5" stroke="white"/>
<rect x="15.5" y="21.5" width="3" height="5" rx="0.5" stroke="white"/>
<path d="M8.5 5C8.5 2.51472 10.5147 0.5 13 0.5H21C23.4853 0.5 25.5 2.51472 25.5 5V26.5H8.5V5Z" stroke="white"/>
<path d="M0.5 10C0.5 7.51472 2.51472 5.5 5 5.5H8.5V26.5H0.5V10Z" stroke="white"/>
<path d="M25.5 5.5H29C31.4853 5.5 33.5 7.51472 33.5 10V26.5H25.5V5.5Z" stroke="white"/>
<rect x="3.5" y="10.5" width="3" height="4" rx="0.5" stroke="white"/>
<rect x="19" y="6.5" width="3" height="4" rx="0.5" stroke="white"/>
<rect x="12" y="6.5" width="3" height="4" rx="0.5" stroke="white"/>
<rect x="19" y="13.5" width="3" height="4" rx="0.5" stroke="white"/>
<rect x="12" y="13.5" width="3" height="4" rx="0.5" stroke="white"/>
<path d="M8.5 5C8.5 2.51472 10.5147 0.5 13 0.5H21C23.4853 0.5 25.5 2.51472 25.5 5V26.5H8.5V5Z" stroke="white"/>
<path d="M0.5 10C0.5 7.51472 2.51472 5.5 5 5.5H8.5V26.5H0.5V10Z" stroke="white"/>
<path d="M25.5 5.5H29C31.4853 5.5 33.5 7.51472 33.5 10V26.5H25.5V5.5Z" stroke="white"/>
</svg>
