<svg width="18" height="25" viewBox="0 0 18 25" fill="none" xmlns="http://www.w3.org/2000/svg">
    <path fill-rule="evenodd" clip-rule="evenodd"
        d="M4.41625 0.0337031C3.99843 0.135364 3.787 0.415084 3.68021 1.0074C3.61045 1.39466 3.61655 1.96272 3.69391 2.27907C3.7198 2.38469 3.73735 2.59115 3.73799 2.7962C3.7396 3.32875 3.8589 3.72525 4.09419 3.9791C4.1585 4.0485 4.24463 4.14823 4.2855 4.20068C4.39089 4.33583 4.60136 4.43576 4.85345 4.47046C5.01865 4.49308 5.66578 4.62336 5.86843 4.67459C5.90759 4.68454 5.94451 6.62776 5.93081 7.96072L5.92172 8.83995L4.80894 8.83062C3.43016 8.81905 3.30786 8.8436 3.07739 9.17821C3.00944 9.27673 2.97306 9.23077 2.76741 8.78587L2.59236 8.40713L2.65207 8.15004C2.78753 7.56686 2.85708 7.61089 1.9676 7.7163C1.58444 7.76176 1.15538 7.81249 1.01414 7.82912C0.872903 7.84576 0.590428 7.86088 0.386382 7.86271C-0.0471743 7.86656 -0.0340139 7.85429 0.0393868 8.18626C0.0630334 8.29279 0.0897829 8.57038 0.0989847 8.80302C0.128088 9.53788 0.211333 9.96218 0.367016 10.1705C0.460211 10.2952 0.749748 10.7341 0.801 10.8285C0.821223 10.8658 0.935175 11.0148 1.05437 11.1599C1.6006 11.8249 1.72011 12.2118 1.72504 13.3312L1.72739 13.8723L1.60306 14.2083C1.44449 14.6365 1.44534 14.7902 1.60659 14.9303C1.87291 15.1617 2.18449 15.0319 2.28528 14.6474C2.35237 14.3913 2.33664 13.8385 2.5134 22.6518C2.52998 23.4777 2.55631 24.1992 2.57182 24.2552C2.6587 24.5682 3.05823 24.7001 3.32808 24.5049C3.54079 24.351 3.53352 24.4637 3.48195 22.0972C3.46675 21.3978 3.44129 20.1681 3.42534 19.3646C3.39902 18.0331 3.36906 16.6203 3.32391 14.5758L3.30711 13.8182L3.39506 13.5657C3.59472 12.9916 3.57953 12.9105 3.6525 14.941C3.68599 15.871 3.74452 17.5015 3.78261 18.5644C3.85034 20.4531 3.85334 20.4996 3.91668 20.6206C4.09355 20.9583 4.61441 20.9447 4.77919 20.5981C4.83526 20.4803 4.82788 20.2157 4.60971 14.5216C4.58799 13.9562 4.56198 13.177 4.55182 12.7901C4.53973 12.3325 4.51908 12.0315 4.49276 11.9288C4.4705 11.8421 4.45231 11.7654 4.45231 11.7584C4.45231 11.7514 4.82146 11.7523 5.27267 11.7604C5.72377 11.7686 6.85046 11.7813 7.77642 11.7887C14.0436 11.8385 13.9976 11.8376 13.9653 11.907C13.954 11.9314 13.923 12.0244 13.8966 12.1137C13.8701 12.203 13.8215 12.3311 13.7884 12.3985C13.7304 12.5169 13.7276 12.5795 13.6993 14.2924C13.6833 15.2666 13.6634 16.429 13.6552 16.8754C13.6087 19.4135 13.6039 20.3974 13.6376 20.4941C13.7391 20.7861 14.1536 20.8909 14.4069 20.6888C14.5774 20.5528 14.576 20.5676 14.6099 18.5123C14.627 17.4781 14.653 15.9806 14.6676 15.1845C14.6824 14.3884 14.6947 13.5489 14.695 13.319C14.6957 12.8329 14.7143 12.8229 14.8425 13.2394L14.929 13.5206L14.9095 19.0805L14.8898 24.6404L14.9582 24.7607C15.1399 25.0799 15.6274 25.0797 15.8008 24.7603L15.8657 24.6404L15.8853 19.8516C15.8983 16.6411 15.914 15.0926 15.9328 15.1533C15.9976 15.3623 16.2269 15.4713 16.4481 15.3982C16.7389 15.3021 16.768 15.0199 16.5676 14.2375C16.486 13.9187 16.533 13.6603 16.8194 12.8577C16.907 12.6122 17.0058 12.32 17.0388 12.2084C17.0719 12.0968 17.128 11.9507 17.1634 11.8837C17.1988 11.8167 17.2491 11.6916 17.2752 11.6055C17.3333 11.4144 17.6362 10.7801 17.7509 10.6095C17.7969 10.5411 17.8472 10.4193 17.8626 10.339C17.9452 9.90983 18.0416 7.64173 17.9809 7.55722C17.9483 7.51166 16.3065 7.4798 16.0367 7.51937L15.8797 7.54241V8.23181C15.8797 8.99386 15.8823 8.97956 15.7031 9.22783C15.6332 9.32462 15.5315 9.48745 15.4773 9.58962C15.3601 9.81009 15.3572 9.80918 15.1958 9.5044C15.0458 9.22123 14.9387 9.11206 14.7583 9.05839C14.6845 9.03647 14.5729 9.00015 14.5101 8.97773C14.4187 8.94516 14.2357 8.93684 13.5891 8.93583C12.9087 8.93491 12.7796 8.92852 12.7662 8.89514C12.7573 8.87343 12.7609 7.95118 12.7742 6.84569L12.7982 4.83581L13.1548 4.80294C13.351 4.78498 13.7866 4.689 14.022 4.67459C14.771 4.44713 14.664 4.5431 14.878 3.9791C14.9823 3.70415 15.3432 3.08566 15.1973 1.87324C15.1731 1.67235 15.1529 1.39233 15.1524 1.25089C15.1508 0.763997 15.0878 0.211263 14.557 0.033712C14.4709 0.00489792 14.0437 0.0538007 13.3265 0.033712C12.7895 0.0185947 12.1489 0.0417272 11.882 0.033712C11.6153 0.0255954 10.9725 0.033712 10.384 0.0337089C9.80347 0.0187946 8.62435 0.0557253 7.81609 0.0337089C5.71711 -0.0235134 4.5423 0.00296128 4.41625 0.0337031ZM9.53119 1.05143C9.95605 1.04829 10.2637 1.04717 10.2872 1.05143C10.3423 1.05143 10.5115 1.05031 10.705 1.05143C10.9077 1.05265 10.919 1.05143 11.0795 1.05143C11.0743 1.06523 11.0795 1.04829 10.812 1.35266L10.4961 1.65845L9.86385 1.65449C9.51611 1.65226 9.10007 1.65703 8.93957 1.65703H8.56508L8.29758 1.39862C8.01075 1.05143 8.01075 1.06127 8.01075 1.05143C8.01075 1.04159 8.24408 1.05143 8.45808 1.05143C8.67208 1.05143 9.13413 1.05437 9.53119 1.05143ZM7.73362 4.79787C8.00176 4.83348 8.43329 4.86138 8.96047 4.87721C9.40772 4.8907 9.92773 4.91414 10.116 4.92925C10.5007 4.9602 10.9533 4.93473 11.3124 4.86209C11.51 4.82211 11.7623 4.81856 11.8009 4.85519C11.8081 4.86199 11.8053 5.77774 11.7948 6.89043L11.7758 8.91331L9.93308 8.89535C8.91949 8.8854 7.91691 8.87222 7.70506 8.86613C7.4932 8.85994 7.22678 8.85456 7.11304 8.85415L6.9061 8.85354V6.81221V4.77088L7.07024 4.76104C7.16044 4.75566 7.25352 4.74947 7.27706 4.74714C7.3006 4.7449 7.50604 4.76773 7.73362 4.79787ZM17.1869 8.58296C17.184 8.81357 17.1667 9.25187 17.1485 9.55695L17.1153 10.1116L16.9928 10.3551C16.7571 10.8235 16.6118 11.1424 16.5487 11.3297C16.5138 11.4335 16.4558 11.5741 16.4199 11.6421C16.3841 11.7102 16.3344 11.8403 16.3095 11.9313C16.2581 12.1194 15.8719 13.2299 15.8375 13.2885C15.7998 13.3527 15.7315 13.1913 15.6656 12.8818C15.5656 12.4129 15.4982 12.2373 15.3655 12.1002L15.3 12.0325L15.4646 11.7137C15.6691 11.3176 15.8509 10.8071 15.8274 10.6953C15.7608 10.3798 15.88 10.0783 16.2756 9.56253C16.5614 9.18988 16.5839 9.11916 16.5735 8.62354L16.5645 8.19062L16.7499 8.17439C16.852 8.16556 16.9932 8.15947 17.0639 8.16089L17.1923 8.16363L17.1869 8.58296ZM1.95155 8.35092C1.92459 8.53781 2.28132 9.32289 2.54218 9.6505L2.66202 9.80096L2.58915 9.90211C2.54913 9.95782 2.42577 10.0931 2.31513 10.2026C2.0685 10.4467 1.9324 10.6851 1.95872 10.8267C2.00238 11.0613 2.43657 11.7827 2.64929 11.9742L2.73478 12.0512L2.66202 12.1842C2.622 12.2574 2.56786 12.4038 2.54165 12.5095L2.49392 12.7018L2.44471 12.4077C2.31278 11.6189 2.18427 11.3426 1.63901 10.676C1.54325 10.5591 1.44299 10.4229 1.41602 10.3734C1.38917 10.324 1.27318 10.1507 1.15827 9.98845C0.927365 9.66216 0.936246 9.69118 0.871298 9.05606C0.793189 8.29299 0.784736 8.31552 1.15324 8.31034C1.23359 8.30923 1.40212 8.29248 1.52773 8.273C1.65324 8.25362 1.80389 8.23627 1.86242 8.23445L1.96888 8.2312L1.95155 8.35092ZM10.9143 9.70687C12.4696 10.0171 10.7503 10.8156 9.06693 10.8069C8.1659 10.8022 6.68791 10.5316 6.68791 10.1116C6.68791 9.86863 7.85571 9.56395 8.27825 9.49131C8.37615 9.47447 9.8451 9.51542 9.18773 9.49131C10.2731 9.49131 10.6973 9.66365 10.9143 9.70687Z"
        fill="#743582" />
</svg>