<svg width="25" height="23" viewBox="0 0 25 23" fill="none" xmlns="http://www.w3.org/2000/svg">
    <path
        d="M1.86983 2.5757C1.86983 1.32613 2.95957 0.324219 4.31868 0.324219C5.67778 0.324219 6.76752 1.32613 6.76752 2.5757C6.76752 3.82528 5.67778 4.82719 4.31868 4.82719C2.95957 4.82719 1.86983 3.82528 1.86983 2.5757ZM8.60415 10.3996V8.20442C8.60415 6.9661 7.50217 5.95293 6.15531 5.95293H2.48204C1.13518 5.95293 0.0332031 6.9661 0.0332031 8.20442V13.8331C0.0332031 14.4523 0.584192 14.9589 1.25762 14.9589H2.48204V21.7133C2.48204 22.3325 3.03303 22.8391 3.70647 22.8391H6.76752V22.7152C5.24924 21.2968 4.31868 19.3493 4.31868 17.2104C4.31868 14.3059 6.04511 11.7618 8.60415 10.3996Z"
        fill="#733381" />
    <path
        d="M24.1544 18.7016L24.6627 19.6404C24.8031 19.8996 24.6876 20.2141 24.4048 20.3428L22.0658 21.4198C21.4924 21.6808 20.7954 21.4589 20.5227 20.9267L18.2797 16.5509H13.2892C12.7202 16.5509 12.2378 16.1673 12.1573 15.651C10.9465 7.88174 11.0161 8.36437 11.0025 8.16642C11.0025 6.97563 12.0857 6.01676 13.3982 6.07264C14.5869 6.12324 15.5437 7.01932 15.575 8.10983C15.606 9.18844 14.7478 10.0888 13.6239 10.24L13.7908 11.3106H18.4341C18.7499 11.3106 19.0058 11.5452 19.0058 11.8346V12.8827C19.0058 13.1721 18.7499 13.4067 18.4341 13.4067H14.1174L14.2808 14.4548H19.0058C19.2229 14.4548 19.4354 14.5114 19.6187 14.6181C19.8019 14.7248 19.9483 14.8771 20.0406 15.0572L22.0955 19.0662L23.3881 18.4652C23.6709 18.3365 24.014 18.4424 24.1544 18.7016ZM17.5537 17.5989H16.6781C16.3999 19.3742 14.7299 20.7431 12.7175 20.7431C10.511 20.7431 8.71585 19.0975 8.71585 17.0749C8.71585 15.7155 9.52668 14.5265 10.7282 13.8929C10.5956 13.0425 10.4837 12.3254 10.3893 11.7203C8.07116 12.5703 6.4292 14.65 6.4292 17.0749C6.4292 20.2533 9.25011 22.8392 12.7175 22.8392C15.2853 22.8392 17.4982 21.4208 18.4738 19.394L17.5537 17.5989Z"
        fill="#733381" />
</svg>