<svg width="38" height="42" viewBox="0 0 38 42" fill="none" xmlns="http://www.w3.org/2000/svg">
    <path
        d="M21.4588 20.4303C20.3738 23.0164 20.4892 25.7076 23.7442 26.7799C30.4389 29.0296 31.9394 23.1215 32.0318 22.8272L21.4588 20.4303ZM33.0706 18.7273L23.0978 16.4776C23.5364 14.27 22.867 12.0623 22.867 9.45521C22.867 5.923 25.9373 -0.99425 30.8314 0.120079C36.418 1.38158 37.226 7.03733 37.0182 9.77059C36.7412 12.5038 33.2322 18.3488 33.0706 18.7273ZM5.04522 37.5237C5.11447 37.8391 6.63809 43.7261 13.3328 41.4974C16.5647 40.4041 16.7032 37.7129 15.6182 35.1268L5.04522 37.5237ZM0.0819092 24.4881C-0.148945 21.7549 0.635948 16.0781 6.24565 14.8166C11.1166 13.6602 14.1869 20.6195 14.1869 24.1728C14.1869 26.7589 13.5406 28.9665 13.933 31.1741L4.00639 33.4238C3.8217 33.0453 0.335846 27.2004 0.0819092 24.4881Z"
        fill="#733381" />
</svg>