<svg width="25" height="24" viewBox="0 0 25 24" fill="none" xmlns="http://www.w3.org/2000/svg">
    <path
        d="M23.4669 17.5394L24.1399 18.7823C24.3258 19.1255 24.1729 19.5418 23.7985 19.7122L20.7018 21.1381C19.9426 21.4836 19.0199 21.1899 18.6588 20.4853L15.6893 14.6919H9.08213C8.32883 14.6919 7.6902 14.1842 7.58362 13.5006C5.98063 3.21462 6.07273 3.85359 6.05475 3.59151C6.05475 2.01499 7.48887 0.745509 9.22649 0.819483C10.8003 0.886476 12.0669 2.07283 12.1084 3.51659C12.1495 4.9446 11.0133 6.13659 9.5253 6.33675L9.74621 7.75422H15.8937C16.3117 7.75422 16.6506 8.06482 16.6506 8.448V9.83555C16.6506 10.2187 16.3117 10.5293 15.8937 10.5293H10.1787L10.395 11.9169H16.6506C16.938 11.9169 17.2194 11.9919 17.462 12.1331C17.7046 12.2743 17.8983 12.4759 18.0205 12.7144L20.7412 18.0221L22.4525 17.2264C22.8269 17.0561 23.2811 17.1962 23.4669 17.5394ZM14.7281 16.0795H13.5689C13.2005 18.4298 10.9896 20.2422 8.32528 20.2422C5.40401 20.2422 3.02738 18.0636 3.02738 15.3857C3.02738 13.586 4.10086 12.0118 5.69165 11.1729C5.51607 10.0471 5.36791 9.09768 5.24285 8.29667C2.17384 9.42202 0 12.1754 0 15.3857C0 19.5938 3.73469 23.0173 8.32528 23.0173C11.7249 23.0173 14.6547 21.1394 15.9462 18.456L14.7281 16.0795Z"
        fill="#733381" />
</svg>