<svg width="28" height="54" viewBox="0 0 28 54" fill="none" xmlns="http://www.w3.org/2000/svg">
<mask id="path-1-inside-1_955_2355" fill="white">
<path fill-rule="evenodd" clip-rule="evenodd" d="M15.5794 12.1381H12.4557C6.24518 12.1381 1.21054 17.1824 1.21054 23.4049V38.7403C1.21054 41.6786 3.58801 44.0607 6.52077 44.0607H11.3712V44.9996H14.0176H16.4428V44.0607H21.5144C24.4471 44.0607 26.8246 41.6786 26.8246 38.7403V23.4049C26.8246 17.1824 21.7899 12.1381 15.5794 12.1381ZM12.4557 11.1992C5.72763 11.1992 0.273438 16.6639 0.273438 23.4049V38.7403C0.273438 42.1972 3.07046 44.9996 6.52077 44.9996H14.0176H21.5144C24.9647 44.9996 27.7617 42.1972 27.7617 38.7403V23.4049C27.7617 16.6639 22.3075 11.1992 15.5794 11.1992H12.4557Z"/>
</mask>
<path fill-rule="evenodd" clip-rule="evenodd" d="M15.5794 12.1381H12.4557C6.24518 12.1381 1.21054 17.1824 1.21054 23.4049V38.7403C1.21054 41.6786 3.58801 44.0607 6.52077 44.0607H11.3712V44.9996H14.0176H16.4428V44.0607H21.5144C24.4471 44.0607 26.8246 41.6786 26.8246 38.7403V23.4049C26.8246 17.1824 21.7899 12.1381 15.5794 12.1381ZM12.4557 11.1992C5.72763 11.1992 0.273438 16.6639 0.273438 23.4049V38.7403C0.273438 42.1972 3.07046 44.9996 6.52077 44.9996H14.0176H21.5144C24.9647 44.9996 27.7617 42.1972 27.7617 38.7403V23.4049C27.7617 16.6639 22.3075 11.1992 15.5794 11.1992H12.4557Z" fill="#743582"/>
<path d="M11.3712 44.0607H1011.37V-955.939H11.3712V44.0607ZM16.4428 44.0607V-955.939H-983.557V44.0607H16.4428ZM16.4428 44.9996V1045H1016.44V44.9996H16.4428ZM11.3712 44.9996H-988.629V1045H11.3712V44.9996ZM12.4557 1012.14H15.5794V-987.862H12.4557V1012.14ZM1001.21 23.4049C1001.21 567.657 560.338 1012.14 12.4557 1012.14V-987.862C-547.848 -987.862 -998.789 -533.293 -998.789 23.4049H1001.21ZM1001.21 38.7403V23.4049H-998.789V38.7403H1001.21ZM6.52077 -955.939C557.68 -955.939 1001.21 -508.797 1001.21 38.7403H-998.789C-998.789 592.154 -550.504 1044.06 6.52077 1044.06V-955.939ZM-973.175 38.7403C-973.175 -508.797 -529.645 -955.939 21.5144 -955.939V1044.06C578.539 1044.06 1026.82 592.154 1026.82 38.7403H-973.175ZM-973.175 23.4049V38.7403H1026.82V23.4049H-973.175ZM15.5794 1012.14C-532.303 1012.14 -973.175 567.658 -973.175 23.4049H1026.82C1026.82 -533.293 575.883 -987.862 15.5794 -987.862V1012.14ZM1000.27 23.4049C1000.27 567.139 559.82 1011.2 12.4557 1011.2V-988.801C-548.365 -988.801 -999.727 -533.811 -999.727 23.4049H1000.27ZM1000.27 38.7403V23.4049H-999.727V38.7403H1000.27ZM6.52077 -955C557.163 -955 1000.27 -508.278 1000.27 38.7403H-999.727C-999.727 592.673 -551.022 1045 6.52077 1045V-955ZM-972.238 38.7403C-972.238 -508.278 -529.128 -955 21.5144 -955V1045C579.057 1045 1027.76 592.672 1027.76 38.7403H-972.238ZM-972.238 23.4049V38.7403H1027.76V23.4049H-972.238ZM15.5794 1011.2C-531.785 1011.2 -972.238 567.139 -972.238 23.4049H1027.76C1027.76 -533.811 576.4 -988.801 15.5794 -988.801V1011.2ZM12.4557 1011.2H15.5794V-988.801H12.4557V1011.2ZM11.3712 -955.939H6.52077V1044.06H11.3712V-955.939ZM21.5144 -955.939H16.4428V1044.06H21.5144V-955.939ZM-983.557 44.0607V44.9996H1016.44V44.0607H-983.557ZM1011.37 44.9996V44.0607H-988.629V44.9996H1011.37ZM21.5144 -955H14.0176V1045H21.5144V-955ZM14.0176 -955H6.52077V1045H14.0176V-955ZM16.4428 -955H14.0176V1045H16.4428V-955ZM14.0176 -955H11.3712V1045H14.0176V-955Z" fill="#743582" mask="url(#path-1-inside-1_955_2355)"/>
<path fill-rule="evenodd" clip-rule="evenodd" d="M13.3077 10.964C15.9893 10.964 18.1632 8.7901 18.1632 6.1085C18.1632 3.42689 15.9893 1.25303 13.3077 1.25303C10.6261 1.25303 8.45224 3.42689 8.45224 6.1085C8.45224 8.7901 10.6261 10.964 13.3077 10.964ZM13.3077 12.217C16.6813 12.217 19.4162 9.48213 19.4162 6.1085C19.4162 2.73487 16.6813 0 13.3077 0C9.93409 0 7.19922 2.73487 7.19922 6.1085C7.19922 9.48213 9.93409 12.217 13.3077 12.217Z" fill="#743582"/>
<path fill-rule="evenodd" clip-rule="evenodd" d="M13.3077 10.964C15.9893 10.964 18.1632 8.7901 18.1632 6.1085C18.1632 3.42689 15.9893 1.25303 13.3077 1.25303C10.6261 1.25303 8.45224 3.42689 8.45224 6.1085C8.45224 8.7901 10.6261 10.964 13.3077 10.964ZM13.3077 12.217C16.6813 12.217 19.4162 9.48213 19.4162 6.1085C19.4162 2.73487 16.6813 0 13.3077 0C9.93409 0 7.19922 2.73487 7.19922 6.1085C7.19922 9.48213 9.93409 12.217 13.3077 12.217Z" fill="#743582"/>
<path fill-rule="evenodd" clip-rule="evenodd" d="M19 6C19 5.44772 19.1885 5 19.4211 5H26.5789C26.8115 5 27 5.44772 27 6C27 6.55228 26.8115 7 26.5789 7H19.4211C19.1885 7 19 6.55228 19 6Z" fill="#743582"/>
<path fill-rule="evenodd" clip-rule="evenodd" d="M0 6C0 5.44772 0.188512 5 0.421053 5H7.57895C7.81149 5 8 5.44772 8 6C8 6.55228 7.81149 7 7.57895 7H0.421053C0.188512 7 0 6.55228 0 6Z" fill="#743582"/>
<mask id="path-7-inside-2_955_2355" fill="white">
<path fill-rule="evenodd" clip-rule="evenodd" d="M16.2286 50.7795V39.0162C16.2286 37.7871 15.2395 36.7907 14.0193 36.7907C12.7992 36.7907 11.8101 37.7871 11.8101 39.0162V50.7795C11.8101 52.0086 12.7992 53.005 14.0193 53.005C15.2395 53.005 16.2286 52.0086 16.2286 50.7795ZM14.0193 35.8369C12.2763 35.8369 10.8633 37.2603 10.8633 39.0162V50.7795C10.8633 52.5354 12.2763 53.9588 14.0193 53.9588C15.7624 53.9588 17.1754 52.5354 17.1754 50.7795V39.0162C17.1754 37.2603 15.7624 35.8369 14.0193 35.8369Z"/>
</mask>
<path fill-rule="evenodd" clip-rule="evenodd" d="M16.2286 50.7795V39.0162C16.2286 37.7871 15.2395 36.7907 14.0193 36.7907C12.7992 36.7907 11.8101 37.7871 11.8101 39.0162V50.7795C11.8101 52.0086 12.7992 53.005 14.0193 53.005C15.2395 53.005 16.2286 52.0086 16.2286 50.7795ZM14.0193 35.8369C12.2763 35.8369 10.8633 37.2603 10.8633 39.0162V50.7795C10.8633 52.5354 12.2763 53.9588 14.0193 53.9588C15.7624 53.9588 17.1754 52.5354 17.1754 50.7795V39.0162C17.1754 37.2603 15.7624 35.8369 14.0193 35.8369Z" fill="#743582"/>
<path d="M8.22858 39.0162V50.7795H24.2286V39.0162H8.22858ZM14.0193 44.7907C10.766 44.7907 8.22858 42.15 8.22858 39.0162H24.2286C24.2286 33.4242 19.7129 28.7907 14.0193 28.7907V44.7907ZM19.8101 39.0162C19.8101 42.15 17.2727 44.7907 14.0193 44.7907V28.7907C8.32575 28.7907 3.8101 33.4242 3.8101 39.0162H19.8101ZM19.8101 50.7795V39.0162H3.8101V50.7795H19.8101ZM14.0193 45.005C17.2727 45.005 19.8101 47.6457 19.8101 50.7795H3.8101C3.8101 56.3715 8.32575 61.005 14.0193 61.005V45.005ZM8.22858 50.7795C8.22858 47.6457 10.766 45.005 14.0193 45.005V61.005C19.7129 61.005 24.2286 56.3715 24.2286 50.7795H8.22858ZM18.8633 39.0162C18.8633 41.6232 16.7498 43.8369 14.0193 43.8369V27.8369C7.80283 27.8369 2.86328 32.8974 2.86328 39.0162H18.8633ZM18.8633 50.7795V39.0162H2.86328V50.7795H18.8633ZM14.0193 45.9588C16.7498 45.9588 18.8633 48.1725 18.8633 50.7795H2.86328C2.86328 56.8983 7.80283 61.9588 14.0193 61.9588V45.9588ZM9.1754 50.7795C9.1754 48.1725 11.2889 45.9588 14.0193 45.9588V61.9588C20.2358 61.9588 25.1754 56.8983 25.1754 50.7795H9.1754ZM9.1754 39.0162V50.7795H25.1754V39.0162H9.1754ZM14.0193 43.8369C11.2889 43.8369 9.1754 41.6232 9.1754 39.0162H25.1754C25.1754 32.8974 20.2358 27.8369 14.0193 27.8369V43.8369Z" fill="#743582" mask="url(#path-7-inside-2_955_2355)"/>
<path d="M8.89909 17.6384C7.9265 18.0503 7.07478 18.5416 6.32235 19.294C6.01569 19.6007 5.75328 19.9297 5.54957 20.3132C5.51642 20.3757 5.4903 20.4416 5.46344 20.507C5.41369 20.6282 5.44255 20.5802 5.48497 20.5166C6.63619 18.7898 7.85948 17.141 8.84646 15.3081C9.08605 14.8631 8.35383 16.1922 8.06889 16.6096C7.76258 17.0583 7.44325 17.4991 7.11906 17.9351C7.04513 18.0345 6.79899 18.4675 6.64056 18.5045C6.49218 18.5391 6.57374 18.2011 6.59271 18.0499C6.66246 17.4941 6.86933 16.9512 7.06164 16.4302C7.26501 15.8792 7.50864 15.3473 7.72198 14.8009C7.7349 14.7678 7.91495 14.3662 7.83442 14.308C7.5607 14.1103 5.07685 17.8392 4.84139 18.2748C4.82384 18.3073 4.83892 18.1987 4.85335 18.1648C5.05249 17.6962 5.34751 17.2585 5.63092 16.8393C5.98776 16.3114 6.37955 15.8087 6.74104 15.2842C6.80832 15.1865 6.87182 15.0864 6.93723 14.9875C6.9888 14.9095 7.01124 14.7626 7.10471 14.7626C7.17967 14.7626 7.12209 14.9146 7.10471 14.9875C6.96441 15.5762 6.63746 16.1317 6.35106 16.6551C6.07843 17.1533 5.79138 17.6481 5.49215 18.1313C5.49144 18.1324 5.38077 18.3476 5.32946 18.2963C5.2259 18.1928 5.38225 17.8083 5.40602 17.7437C5.58081 17.2688 5.83896 16.8323 6.06157 16.3799C6.10404 16.2936 6.72626 15.0232 6.55921 14.9396C6.43046 14.8753 5.75292 15.3978 5.67877 15.4421C5.08785 15.7952 4.52544 16.1524 3.98487 16.5761C3.77112 16.7437 3.90682 16.2962 3.9418 16.222C4.04187 16.0099 4.16606 15.7511 4.31982 15.5713C4.71564 15.1084 5.28204 15.0252 5.84624 14.8559C6.12141 14.7734 6.34558 14.626 6.57835 14.4659C6.75119 14.3471 6.94732 14.2895 7.12385 14.1836C7.22339 14.1239 7.27242 14.0034 7.3631 13.93C7.448 13.8613 7.7822 13.6431 7.44923 13.6812C7.30605 13.6975 7.08205 13.7315 6.96116 13.8152C6.84177 13.8978 6.76655 14.0194 6.63577 14.0879C6.42719 14.1972 6.14293 14.361 5.98501 14.5329C5.88854 14.638 5.75098 14.7242 5.67398 14.8439C5.56552 15.0127 5.48794 15.1692 5.32946 15.3033C4.83761 15.7195 4.33409 16.0853 3.95616 16.6144C3.54305 17.1927 3.16092 17.7859 2.76229 18.3705C2.68247 18.4876 2.69007 18.6199 2.65463 18.7533C2.60938 18.9237 2.53404 19.0836 2.46802 19.2462C2.35906 19.5144 2.26387 19.8146 2.23355 20.1027C2.19536 20.4654 2.22398 20.8417 2.22398 21.2056C2.22398 21.6105 1.9918 22.0032 1.94405 22.4139C1.89499 22.8358 1.83639 23.2525 1.83639 23.6771C1.83639 23.7797 1.8571 23.9111 1.82682 24.0121C1.78646 24.1466 1.70396 23.7436 1.69763 23.7202C1.46855 22.8743 1.36267 22.0271 1.36267 21.1506C1.36267 20.8745 1.31422 20.5548 1.39138 20.2893C1.45459 20.0719 1.54245 19.6802 1.75026 19.5763" stroke="#743582" stroke-linecap="round"/>
<path d="M1.62062 27.7586C1.62062 26.918 1.62062 26.0775 1.62062 25.2369C1.62062 24.6668 1.79255 24.1453 1.83594 23.5813C1.84887 23.4132 1.97999 23.2448 1.96514 23.074C1.95593 22.9682 1.81922 23.2317 1.76895 23.3253C1.66822 23.5128 1.53203 23.6717 1.42443 23.854C1.23363 24.1773 1.36222 25.3539 1.36222 24.9785C1.36222 24.1832 1.63209 23.5344 1.84551 22.7822C1.95044 22.4123 2.01282 22.0742 2.21396 21.7414C2.45809 21.3375 2.73795 20.9538 2.99392 20.5571C3.25919 20.1461 3.59355 19.8299 3.93178 19.4781C4.37332 19.0189 4.80472 18.5509 5.25245 18.0976C5.52536 17.8213 5.88822 17.519 6.0994 17.1885C6.1998 17.0313 6.14439 17.0633 5.90561 17.1454C4.87812 17.4989 3.92094 18.1355 2.99392 18.691C2.37649 19.0609 1.65036 19.482 1.2737 20.1241C1.22082 20.2142 1.13484 20.4951 1.21867 20.4327C1.86744 19.9499 2.60587 19.5649 3.0944 18.9015C3.3726 18.5237 3.59497 18.103 3.86001 17.7244" stroke="#743582" stroke-linecap="round"/>
<path d="M4.72355 16.7768C4.11139 17.608 3.50053 18.4359 2.84543 19.2339C2.66181 19.4576 2.27049 19.7964 2.28558 20.1359C2.29198 20.2799 2.57914 20.0749 2.68992 19.9828C3.26315 19.5057 3.83795 18.9989 4.34553 18.4516C4.85161 17.9058 5.16489 17.2572 5.57289 16.6452C5.64892 16.5312 5.78175 16.4777 5.84325 16.3701C5.94016 16.2005 5.77061 16.4553 5.74755 16.4897C5.67235 16.6018 4.83644 17.7455 4.8671 17.2242C4.87585 17.0754 5.3501 15.877 5.42695 15.9346C5.58522 16.0533 5.12749 16.6075 5.06807 16.6907" stroke="#743582" stroke-linecap="round"/>
<path d="M1.36432 28.059C1.58216 28.0348 1.71003 27.9252 1.89068 27.8054C2.63215 27.3137 3.42182 26.8911 4.1851 26.4345C4.95488 25.974 5.69833 25.4999 6.41731 24.9631C7.02218 24.5115 7.71693 24.1165 8.2739 23.6065C8.64458 23.2671 8.97876 22.8696 9.31465 22.4964C9.53468 22.2519 9.70848 22.0315 9.78597 21.7093C9.87265 21.3489 9.54242 20.7731 9.28833 20.5465C9.17013 20.4411 8.98797 20.4814 8.85768 20.5369C8.10426 20.8578 7.47132 21.5956 6.93888 22.1878C6.55486 22.6149 6.35281 22.8712 6.00819 23.3242C5.98049 23.3606 5.20153 24.3245 5.9101 23.5802C6.68948 22.7615 7.48016 21.9603 8.31218 21.1949C8.6577 20.877 7.70385 21.9109 7.3791 22.25C7.00517 22.6404 5.85106 23.7731 6.27615 23.4391C6.45885 23.2955 6.60256 23.1083 6.76423 22.9414C7.16238 22.5304 7.56742 22.1303 8.00594 21.7619C8.06345 21.7136 8.51225 21.3445 8.63278 21.293C8.87372 21.1899 8.51739 21.8109 8.39353 22.0418C8.14672 22.502 8.02454 22.7081 7.79301 23.1687C7.71884 23.3163 7.4489 23.6886 7.60161 23.6257C7.74691 23.5659 7.78854 23.3729 7.87675 23.2429C8.07102 22.9564 8.26295 22.6681 8.46052 22.384C8.48903 22.343 8.67121 22.076 8.73805 22.0203C8.88968 21.894 8.57812 22.3866 8.45334 22.5395C7.87992 23.2422 7.06511 24.044 6.18285 24.341C6.11758 24.363 5.96639 24.3603 5.98187 24.2932C6.01305 24.1581 6.33317 23.7253 6.35511 23.6951C6.8667 22.9898 7.50333 22.3223 7.91024 21.5466C8.18603 21.0209 7.1337 22.4459 6.77619 22.9199C6.6551 23.0804 6.33366 23.5666 6.37425 23.3697C6.47267 22.8922 6.84502 22.4537 7.03937 22.0107C7.1103 21.8491 6.80221 22.2731 6.69724 22.4151C6.2433 23.0289 6.11811 23.2085 5.64453 23.8123C5.47193 24.0324 4.96589 24.6978 5.10621 24.4559C5.55047 23.6899 6.18603 22.9702 6.7092 22.2596C6.85246 22.065 6.98755 21.8638 7.14224 21.6782C7.16293 21.6533 7.13247 21.7437 7.11593 21.7715C6.58861 22.6561 6.01543 23.5625 5.33829 24.341C5.22478 24.4716 4.72831 25.0245 5.00094 24.365C5.49681 23.1654 6.32249 22.0421 7.06329 20.9867C7.22421 20.7575 7.38872 20.5299 7.5705 20.3168C7.63081 20.2461 7.69384 20.1266 7.78583 20.1398C7.85559 20.1498 7.80973 20.28 7.80497 20.3503C7.7825 20.6824 7.67032 21.1001 7.58725 21.4054C7.40576 22.0725 7.39151 22.0358 7.20206 22.6711C7.12439 22.9315 6.88359 23.5246 7.00587 23.8195C7.05071 23.9276 7.24703 23.7759 7.33604 23.6998C7.89335 23.2238 8.40903 22.6806 8.93184 22.1686C9.70832 21.4083 10.4508 20.5779 11.2741 19.867C11.6398 19.5513 11.636 19.8035 11.5229 20.1685C11.2975 20.896 11.0684 21.6615 10.7884 22.3696C10.6167 22.804 11.008 21.4614 11.1306 21.0107C11.1519 20.9322 11.2357 20.615 11.2598 20.4843C11.2728 20.4134 11.1827 20.607 11.1353 20.6614C10.7745 21.076 10.2586 21.4056 9.81468 21.7284C9.61992 21.8701 9.38395 21.942 9.1711 22.0514C9.00075 22.1389 8.79462 22.3334 8.83375 22.0203C8.84787 21.9073 8.95066 21.583 8.90074 21.6854C8.53116 22.443 7.72762 23.0215 7.09918 23.5443C6.99076 23.6345 6.44394 24.093 6.22352 24.2118C5.96236 24.3527 6.20584 23.7743 6.20677 23.7716C6.53759 22.811 7.09431 21.9307 7.50591 21.0035C7.59232 20.8088 7.68505 20.6162 7.75473 20.4149C7.83824 20.1737 7.51304 20.8651 7.3791 21.0824C6.49066 22.5243 5.36622 23.8176 4.1827 25.0229C4.02759 25.1809 3.60428 25.6052 3.36686 25.7933C3.15865 25.9582 3.29643 25.5238 3.30704 25.4607C3.48121 24.4262 3.87555 23.4649 4.28797 22.506C4.55852 21.877 4.83407 21.2494 5.21149 20.6757C5.30721 20.5302 5.51436 20.1311 5.72348 20.0919C6.23496 19.996 6.03936 20.6345 5.95795 20.9437C5.78282 21.6087 5.43192 22.2154 5.18277 22.8529C5.13495 22.9753 5.00081 23.3121 5.111 23.2405C5.44147 23.0259 5.72426 22.4508 5.9412 22.1471C6.50493 21.3579 7.05826 20.4747 7.72841 19.7713C7.80718 19.6887 7.64374 19.9845 7.58486 20.0824C7.17838 20.7577 6.74258 21.4212 6.2929 22.0682C5.67734 22.9538 5.03677 23.875 4.28797 24.6569C3.83921 25.1254 4.79459 23.4606 5.09664 22.8864C5.73627 21.6705 6.46296 20.5098 7.23555 19.3742C7.32094 19.2487 7.34561 19.1532 7.34561 19.2833C7.34561 19.6009 7.27766 19.9298 7.18292 20.2307C6.78522 21.494 6.03196 22.6527 5.29044 23.7357C4.99832 24.1624 4.68335 24.6064 4.35018 25.0062C4.03815 25.3806 3.98312 25.3121 4.08222 24.8435C4.37059 23.4797 4.83709 22.1453 5.38135 20.8647C5.51094 20.5598 5.70717 20.1101 5.86225 19.7977C5.89748 19.7267 5.91604 19.64 5.97709 19.5895C6.15234 19.4445 5.81683 20.0159 5.7187 20.2211C5.18057 21.3465 4.5607 22.4335 3.90517 23.4941C3.86864 23.5532 3.39396 24.3196 3.25919 24.4607C3.04016 24.6899 3.41928 23.8444 3.5463 23.5539C4.01724 22.4768 4.57373 21.4594 5.14928 20.4365C5.62832 19.5851 5.16397 20.3982 5.55122 19.69C5.58141 19.6348 5.61092 19.5789 5.64692 19.5273C5.72397 19.4169 5.69353 19.5352 5.67803 19.5895C5.44455 20.4067 4.97165 21.1844 4.56311 21.9198C4.35288 22.2982 3.92889 23.0363 3.69224 23.4319C3.37561 23.9611 3.28758 24.0186 3.54151 23.3362C4.11932 21.7833 4.80809 20.2449 5.5895 18.7832C5.63313 18.7016 5.76929 18.4733 5.76176 18.5655C5.72787 18.9807 5.39806 19.5114 5.22106 19.8527C4.69049 20.8757 4.08809 21.8591 3.52237 22.8625C3.39285 23.0922 3.29954 23.3488 3.12521 23.5467C2.90682 23.7946 3.31415 22.9119 3.44581 22.6089C3.66834 22.0967 4.03568 21.2963 4.26166 20.8121C4.59687 20.0938 4.9191 19.1637 5.44595 18.5464C5.95142 17.9541 4.96157 20.03 4.63728 20.7379C4.32605 21.4173 4.19158 21.7219 3.85493 22.384C3.70014 22.6884 3.26891 23.6002 3.33097 23.2644C3.37205 23.0421 3.48147 22.8379 3.56544 22.628C3.78045 22.0905 3.99828 21.5504 4.2473 21.0274C4.27721 20.9646 4.30383 20.899 4.3454 20.8432C4.35787 20.8265 4.34482 20.8856 4.33822 20.9054C4.20133 21.316 3.96099 21.7062 3.74727 22.0777C3.27081 22.9061 3.4741 22.5176 3.00559 23.341C2.86172 23.5938 2.69679 24.0563 2.49837 24.2908C2.42979 24.3719 2.56182 24.0879 2.60125 23.9893C2.77017 23.5671 2.77578 23.5863 2.96013 23.1233C3.3319 22.1895 3.62005 21.2267 4.00566 20.2977C4.05161 20.187 4.17573 19.8536 4.15878 19.9723C4.11364 20.2883 3.89879 20.6555 3.77837 20.9365C3.39808 21.8238 3.04516 22.7199 2.64671 23.5994C2.48876 23.948 2.36811 24.331 2.18256 24.6664C2.11446 24.7895 2.14166 24.3855 2.15385 24.2453C2.22716 23.4023 2.39273 22.5531 2.57972 21.7284C2.61127 21.5893 2.85275 20.6068 2.76634 21.3576C2.55488 23.1946 2.04145 25.0606 1.48873 26.8197C1.44469 26.9599 1.34861 27.377 1.33083 27.2312C1.2949 26.9366 1.62742 26.3118 1.71602 26.0948C2.12208 25.1001 2.53117 24.1073 2.93381 23.1113C2.97472 23.0101 3.05629 22.7134 3.08215 22.8194C3.13461 23.0345 2.90607 23.5986 2.86204 23.7692C2.646 24.6064 2.43127 25.4453 2.23998 26.2885C2.12955 26.7754 2.64262 25.7537 2.65867 25.7263C3.14246 24.9013 3.57907 24.0537 4.09179 23.2453C4.09215 23.2447 4.44118 22.6963 4.48895 22.6376C4.50449 22.6185 4.5447 22.5787 4.55354 22.6017C4.57283 22.6518 4.54825 22.7095 4.5368 22.762C4.31793 23.7651 3.91377 24.75 3.55826 25.7096C3.45413 25.9906 3.32184 26.3523 3.18981 26.6379C3.17138 26.6777 3.16782 26.742 3.12521 26.7527C2.97089 26.7913 3.26345 26.466 3.34054 26.3268C3.83032 25.4428 4.42874 24.5729 4.78083 23.6209C4.78903 23.5987 4.80908 23.5324 4.79519 23.5515C4.75658 23.6046 4.73428 23.6678 4.70427 23.7262C4.44798 24.2248 4.60298 23.936 4.29276 24.5037C4.15301 24.7595 4.01059 25.0019 3.89082 25.2669C3.75426 25.5691 3.88213 25.4106 3.95781 25.3028C4.17979 24.9867 4.32877 24.5558 4.59422 24.2788C4.62819 24.2434 4.61783 24.7968 4.60857 24.8483C4.55068 25.1703 4.37926 25.4281 4.26883 25.7287C4.23151 25.8303 4.2885 25.7796 4.33104 25.7431C4.61885 25.4955 4.89032 25.2532 5.20431 25.0349C5.2186 25.0249 6.2109 24.3422 6.26419 24.4559C6.35502 24.6496 5.91943 25.1105 5.84072 25.2119C5.50053 25.6503 5.10181 26.0704 4.62293 26.3603C4.58917 26.3808 4.50403 26.4283 4.50809 26.389C4.5193 26.2806 4.86524 26.0125 4.89089 25.9895C5.40679 25.5272 5.9517 25.018 6.54651 24.6569C6.81832 24.4918 6.17079 25.1774 5.92924 25.3842C5.39631 25.8405 4.80912 26.2206 4.16356 26.4967C3.89186 26.6129 3.59687 26.6801 3.33575 26.8197C2.92082 27.0415 2.33516 27.3024 1.85718 27.3269C1.58647 27.3408 1.62271 26.9731 1.62271 26.7862C1.62271 26.5561 1.64547 26.3609 1.8189 26.1928C1.9242 26.0908 2.00552 26.0411 2.00552 26.224C2.00552 26.503 1.98725 26.7905 1.94331 27.0661C1.91968 27.2143 1.77091 27.6382 1.83804 27.5039C2.13765 26.9047 2.4624 26.4133 2.94817 25.9392C3.15724 25.7352 2.87505 26.131 2.85007 26.1617C2.77632 26.2525 2.63236 26.5538 2.63236 26.4369C2.63236 26.1743 2.92779 26.0717 3.13 26.0349" stroke="#743582" stroke-linecap="round"/>
<path d="M6.66016 25.5192C9.55039 23.6971 13.1104 23.1659 16.436 22.6338" stroke="#743582" stroke-linecap="round"/>
<path d="M8.64062 23.0211C10.4568 22.9397 12.2335 22.3547 14.0142 22.0211C15.376 21.7659 16.7314 21.517 18.115 21.4277" stroke="#743582" stroke-linecap="round"/>
<path d="M10.4492 20.9543C11.2317 20.6483 12.028 20.5648 12.8609 20.4925C14.7094 20.332 16.5604 20.1474 18.4163 20.1025C19.1966 20.0837 19.9718 20.1352 20.7418 20.0068" stroke="#743582" stroke-linecap="round"/>
<path d="M7.34766 17.2931C10.2776 16.6286 13.2622 16.3457 16.2622 16.3457" stroke="#743582" stroke-linecap="round"/>
<path d="M7.17578 15.4849C8.35096 15.2029 9.47088 15.0592 10.6784 15.0543C11.7997 15.0497 12.921 15.0543 14.0423 15.0543C15.497 15.0543 16.9641 15.0287 18.4158 15.1404" stroke="#743582" stroke-linecap="round"/>
<path d="M7.86719 14.4515C8.86545 14.2283 9.86222 13.957 10.8794 13.8342C12.14 13.6821 13.4354 13.7624 14.7026 13.7624C15.7057 13.7624 16.7174 13.7229 17.7196 13.772C18.0917 13.7902 18.4556 13.8445 18.7627 14.0639" stroke="#743582" stroke-linecap="round"/>
<path d="M7.21875 13.8479C8.1631 13.3757 9.11358 13.244 10.1663 13.1923C11.0508 13.1489 11.9452 13.2127 12.8268 13.1325C14.187 13.0089 15.5438 13.0296 16.9084 13.0296" stroke="#743582" stroke-linecap="round"/>
<path d="M7.30469 16.1305C7.94956 16.3485 8.69779 16.271 9.36703 16.2501C11.1068 16.1957 12.8142 15.8126 14.5492 15.7166C15.3047 15.6748 16.0654 15.6998 16.8221 15.6998" stroke="#743582" stroke-linecap="round"/>
<path d="M8.21094 15.6994C9.34084 15.3459 10.3867 15.0876 11.57 15.0582C11.9001 15.05 12.2304 15.0534 12.5605 15.0534" stroke="#743582" stroke-linecap="round"/>
<path d="M9.54688 15.7431C10.3832 15.3744 11.3752 15.3916 12.2743 15.3627C12.6569 15.3504 13.04 15.3555 13.4227 15.3555" stroke="#743582" stroke-linecap="round"/>
<path d="M5.36719 17.4658C5.53803 17.6611 5.72027 17.6448 5.97249 17.6333C6.04524 17.63 6.55265 17.4981 6.61129 17.5735C6.81907 17.8406 6.56131 18.8974 6.69264 18.5855C6.76116 18.4228 6.72117 17.9766 6.65197 17.8151C6.56866 17.6207 6.16446 18.0734 6.0993 18.1549" stroke="#743582" stroke-linecap="round"/>
<path d="M7.78125 16.6044C8.35811 16.1279 8.91631 15.668 9.58521 15.3268C10.0066 15.1118 10.422 14.8941 10.8341 14.6617C11.4058 14.3392 11.9864 14.0345 12.6046 13.8099C13.6459 13.4317 14.813 13.1592 15.9206 13.1592" stroke="#743582" stroke-linecap="round"/>
<path d="M7.60547 13.9775C8.91239 14.0864 10.2214 14.0637 11.5316 14.0637C11.7899 14.0637 12.0504 14.0467 12.3044 14.1019C12.8654 14.2241 13.4064 14.2359 13.9791 14.2359" stroke="#743582" stroke-linecap="round"/>
<path d="M7.82031 14.6234C8.7182 14.6234 9.65488 14.697 10.5478 14.578C10.9112 14.5295 11.2525 14.4512 11.622 14.4512C12.8931 14.4512 14.1288 14.7096 15.3998 14.7096" stroke="#743582" stroke-linecap="round"/>
<path d="M7.56641 13.0302C8.36567 12.8329 9.18577 12.7224 9.99002 12.5446C10.4157 12.4504 10.8513 12.4151 11.2652 12.2694C11.5948 12.1534 11.8839 12.0649 12.2294 11.9991C12.6783 11.9136 13.1435 11.964 13.5979 11.9488C13.998 11.9355 14.3887 11.8299 14.787 11.8244C15.1345 11.8196 15.4605 11.8281 15.8014 11.7574C15.8715 11.7429 16.273 11.6927 16.1795 11.6976C15.6604 11.7249 15.144 11.7383 14.6243 11.7383C13.9536 11.7383 13.2283 11.9261 12.5787 12.0852C12.3422 12.1431 12.1581 12.1643 12.0165 12.3699C11.82 12.6553 11.8324 12.7504 12.2031 12.7001C12.6234 12.643 13.0374 12.5543 13.4424 12.4297C13.7461 12.3363 14.0968 12.3843 14.4114 12.3843C15.0621 12.3843 15.6761 12.7035 16.3326 12.7288C17.2472 12.764 18.1038 12.7122 18.9476 13.181C19.1954 13.3186 18.4079 13.007 18.1413 12.9106C17.4987 12.6783 16.8617 12.5449 16.1986 12.4034C16.1 12.3824 15.9194 12.3531 15.8206 12.389C15.7501 12.4147 15.8278 12.5639 15.8469 12.5876C16.0224 12.8057 16.3494 12.9026 16.6077 12.9728C16.9354 13.0618 17.2909 13.0302 17.6269 13.0302C18.1702 13.0302 18.6395 13.3623 19.0744 13.6523C19.3325 13.8244 19.4796 14.1094 19.7395 14.2863C20.1113 14.5394 20.4276 14.8099 20.8401 15.0041C21.1416 15.146 21.2181 15.1509 21.2181 15.485" stroke="#743582" stroke-linecap="round"/>
<path d="M21.3863 16.6907C20.6101 16.3071 19.7565 16.3892 18.9124 16.3892C18.1328 16.3892 17.3102 16.5904 16.5438 16.7313C15.7471 16.8779 14.9418 16.7567 14.1657 17.0304C13.2685 17.3469 12.3626 17.6581 11.4717 17.9874C10.6068 18.3072 9.77811 18.7144 8.94283 19.0999C8.86562 19.1356 8.33784 19.2882 8.33274 19.2219C8.319 19.0433 8.50807 18.9075 8.61984 18.7674C9.14737 18.1062 9.73766 17.5074 10.474 17.0783C10.7155 16.9376 11.0965 16.7529 11.4071 16.7529C11.7373 16.7529 11.5182 17.091 11.5244 17.2505" stroke="#743582" stroke-linecap="round"/>
<path d="M9.46028 20.7391C9.46028 20.6511 9.51926 20.1129 9.41482 20.0955C9.2711 20.0716 9.2814 20.1913 9.29041 20.3085C9.30358 20.4797 9.3948 20.6404 9.57991 20.653C9.82071 20.6694 9.72213 20.9569 9.7091 21.1602C9.69128 21.4383 9.65026 21.7717 9.4866 21.3684C9.23776 20.7552 9.09981 20.1017 8.84541 19.495C8.76904 19.3129 8.80657 19.0637 8.93871 18.916C9.40273 18.3974 10.1509 18.0388 10.7809 17.7868C11.5923 17.4622 12.4371 17.3415 13.2931 17.2078C13.5956 17.1605 13.9021 17.1193 14.1855 16.9972C14.2499 16.9695 14.4264 16.8571 14.3601 16.88C14.0259 16.9953 13.7151 17.1726 13.3792 17.2891C12.6321 17.5482 11.8956 17.7726 11.1709 18.0978C10.593 18.3572 10.02 18.634 9.46507 18.94C9.05784 19.1645 8.54142 19.3931 8.21617 19.7391C8.17507 19.7828 7.85367 20.1552 7.953 20.2271C8.1783 20.3903 8.86786 20.2569 9.11097 20.2271C9.43288 20.1877 9.72926 20.0935 10.0249 19.964C10.029 19.9621 10.536 19.7078 10.5297 19.7558C10.4929 20.0378 9.87382 20.3377 9.68518 20.4472C9.42243 20.5999 8.80118 21.0186 8.47457 20.7774C8.24521 20.608 8.24848 20.2033 8.22096 19.9592C8.14713 19.3042 8.04725 18.6692 7.90036 18.026C7.86454 17.8691 7.91138 17.5443 7.75203 17.5667C7.57104 17.592 7.35383 17.897 7.26395 18.0308C7.17278 18.1666 7.14328 18.2949 7.13715 18.4543C7.12521 18.7648 7.36282 18.7843 7.64197 18.7605C8.27742 18.7063 8.89804 18.4709 9.47224 18.2055C9.65091 18.1229 9.75046 18.0181 9.75935 18.2581C9.7641 18.3865 9.74234 18.5782 9.86701 18.6672C10.232 18.9279 11.0671 18.8017 11.4604 18.7916C12.5168 18.7645 13.519 18.6266 14.5372 18.3418C14.8198 18.2628 15.5427 18.0389 15.8483 17.9399C16.0066 17.8886 16.1557 17.7881 16.322 17.782C16.4911 17.7757 16.1031 18.0431 15.9703 18.148C14.9505 18.9538 13.8294 19.64 12.6639 20.2128C11.8559 20.6098 10.9939 20.8875 10.19 21.2894C10.1721 21.2984 10.0303 21.3718 10.1589 21.3396C10.2596 21.3145 10.5683 21.1984 10.6159 21.1817C11.2398 20.9634 11.8008 20.8683 12.4557 20.8683C12.6413 20.8683 12.9472 20.8127 13.1208 20.8875C13.2295 20.9342 13.1127 21.0746 13.0873 21.1076C12.9355 21.305 12.5929 21.625 12.427 21.7679C11.8719 22.2463 11.2662 22.6585 10.6709 23.0838C10.4405 23.2484 10.2184 23.4036 10.001 23.5814C9.93351 23.6366 9.93265 23.6765 10.0441 23.5312C10.2554 23.2555 10.4263 22.9249 10.5154 22.5885C10.6109 22.2278 9.75131 22.6194 9.68518 22.6388C9.55166 22.6779 8.87774 22.9683 8.68989 22.9067C8.64243 22.8912 9.33494 22.1014 9.37415 22.0598C9.52454 21.9001 9.54291 21.8888 9.66604 21.7536C9.69033 21.7269 9.72023 21.6487 9.7426 21.677C9.86774 21.8355 9.55283 22.5573 9.50335 22.6771C9.30985 23.1453 9.03028 23.5643 8.78081 24.0025C8.7335 24.0856 8.65854 24.1612 8.64683 24.2561C8.64171 24.2976 8.72574 24.2241 8.75688 24.1963C8.94898 24.0247 9.68251 23.2505 9.75935 23.1699C10.3448 22.5559 11.0185 21.9433 11.4293 21.1889C11.4856 21.0855 11.7233 20.7638 11.47 20.9401C11.0841 21.2087 10.6797 21.4474 10.2642 21.6674C10.019 21.7972 9.58916 22.0897 9.29759 22.1411C9.2492 22.1497 9.31173 22.0427 9.33109 21.9976C9.40938 21.8149 9.5383 21.5657 9.62776 21.3995C9.81922 21.0437 10.0277 20.6978 10.2355 20.3515" stroke="#743582" stroke-linecap="round"/>
<path d="M12.8196 14.3223C12.7574 14.658 12.6769 14.9575 12.542 15.2721C12.4873 15.3999 12.2412 15.7777 12.3028 15.942C12.406 16.2171 14.2404 15.5997 14.3795 15.5664C14.7461 15.4784 15.1202 15.3815 15.4944 15.3271C15.5343 15.3213 15.612 15.3195 15.5638 15.3821C15.4237 15.5642 15.1574 15.6977 14.9728 15.8295" stroke="#743582" stroke-linecap="round"/>
<rect x="0.496094" y="21.583" width="26.9792" height="14.3889" fill="#743582"/>
<rect x="7.69141" y="13.4893" width="14.3889" height="8.99306" fill="#743582"/>
<rect x="0.496094" y="33.2744" width="10.7917" height="6.29514" fill="#743582"/>
<rect x="16.6836" y="33.2744" width="10.7917" height="7.19444" fill="#743582"/>
<rect x="2.29688" y="38.6699" width="8.99306" height="3.59722" fill="#743582"/>
<rect x="16.6836" y="39.5693" width="6.29514" height="4.49653" fill="#743582"/>
<rect x="3.19531" y="41.3682" width="8.09375" height="2.69792" fill="#743582"/>
<rect x="22.9805" y="39.5693" width="3.59722" height="1.79861" fill="#743582"/>
<rect x="22.9805" y="41.3682" width="2.69792" height="1.79861" fill="#743582"/>
<rect x="21.1797" y="14.3887" width="1.79861" height="7.19444" fill="#743582"/>
<rect x="22.9805" y="17.9863" width="2.69792" height="3.59722" fill="#743582"/>
<rect x="22.9805" y="15.2881" width="0.899306" height="2.69792" fill="#743582"/>
<rect x="23.8789" y="16.1875" width="0.899306" height="1.79861" fill="#743582"/>
<rect x="23.8789" y="17.0869" width="1.79861" height="0.899306" fill="#743582"/>
<rect x="25.6758" y="18.8857" width="0.899306" height="3.59722" fill="#743582"/>
<path d="M18.3398 12.5901C18.6117 12.5814 18.9058 12.5793 19.1687 12.6571C19.3678 12.716 19.5583 12.841 19.7461 12.9291C19.9047 13.0034 20.086 13.0763 20.2142 13.1997C20.3135 13.2951 20.3673 13.4296 20.4595 13.5318C20.542 13.6232 20.6479 13.7095 20.7554 13.7702C20.8397 13.8179 20.934 13.8459 21.0157 13.898C21.0889 13.9447 21.0742 13.9153 21.0212 13.857" stroke="#743582" stroke-linecap="round"/>
<path d="M19.3711 13.1191C19.4606 13.2433 19.5892 13.328 19.7251 13.3959C19.7924 13.4295 19.8271 13.442 19.8959 13.4649C19.9202 13.473 19.9786 13.4813 19.9984 13.5059C20.0263 13.5406 19.9856 13.7129 20.0243 13.7184C20.0318 13.7195 20.0488 13.7103 20.053 13.7088C20.1056 13.6903 20.1664 13.6884 20.2211 13.6877C20.4589 13.6845 20.6862 13.7398 20.9188 13.7799C21.0666 13.8054 21.2136 13.8103 21.3445 13.8899C21.4269 13.94 21.5162 13.9909 21.5946 14.0471C21.6932 14.1178 21.783 14.2001 21.885 14.2664C22.0598 14.3801 22.2503 14.4729 22.4351 14.5691C22.558 14.6332 22.695 14.7238 22.7863 14.8309C22.9165 14.9835 23.0903 15.1161 23.2455 15.2409C23.3188 15.2998 23.3893 15.3531 23.4478 15.4274C23.4987 15.4921 23.5385 15.5513 23.6077 15.5969C23.9497 15.8223 24.0955 16.2163 24.3334 16.5303C24.4468 16.68 24.5707 16.8114 24.7085 16.9382C24.8184 17.0394 24.917 17.1696 24.9771 17.3079C25.0533 17.4834 25.2033 17.6369 25.3078 17.7972C25.3521 17.8651 25.3832 17.9403 25.428 18.0083C25.4974 18.1135 25.5823 18.2081 25.6453 18.3172C25.7409 18.4826 25.9392 18.658 25.9392 18.8631" stroke="#743582" stroke-linecap="round"/>
<path d="M3.68813 43.0466C2.98163 42.0812 1.98236 41.0745 1.75976 39.8502C1.72337 39.65 1.72089 39.4557 1.66406 39.2568" stroke="#743582" stroke-linecap="round"/>
<path d="M2.22266 39.2568C2.2488 39.332 2.59157 40.1059 2.48105 40.1612" stroke="#743582" stroke-linecap="round"/>
<path d="M11.0521 36.4579C11.1868 36.5847 11.2462 36.6444 11.4229 36.5632C11.7527 36.4116 12.0872 36.2792 12.4062 36.1038C12.5521 36.0236 12.6727 35.9533 12.7842 35.831C12.8284 35.7826 13.0331 35.7481 12.9709 35.7688C12.3081 35.9898 11.5792 36.0768 10.9372 36.3502C10.5531 36.5138 10.4061 37.1236 10.4061 37.513C10.4061 37.5922 10.375 37.6963 10.4922 37.6876C11.0489 37.6466 11.6895 37.3466 12.167 37.0704C12.4016 36.9346 12.3756 36.8666 12.1143 36.9196C11.8537 36.9726 11.5347 37.1564 11.2626 37.0991C11.1598 37.0774 11.2848 36.8545 11.3152 36.8215C11.5062 36.6152 11.8666 36.6301 12.1191 36.5679C12.6203 36.4445 13.1318 36.3487 13.636 36.2426" stroke="#743582" stroke-linecap="round"/>
<path d="M14.8867 35.8545C15.6154 35.9501 16.3957 36.1218 17.0304 36.5196C17.3026 36.6902 17.4293 37.0193 17.5304 37.3067C17.6068 37.5236 17.5624 37.4729 17.4347 37.3235C17.2284 37.082 17.0042 36.8784 16.7624 36.6727C16.6479 36.5753 16.2012 35.9992 16.2744 36.4335C16.2999 36.5851 16.3687 36.7115 16.461 36.833C16.511 36.8989 16.6648 37.0026 16.6907 37.0866C16.839 37.5686 16.9873 37.9806 17.2984 38.3953" stroke="#743582" stroke-linecap="round"/>
<path d="M23.0664 43.4769C23.7438 43.4769 24.5407 43.5925 25.0378 43.0271C25.2689 42.7643 25.4112 42.497 25.5738 42.1945C25.6477 42.0569 25.7285 41.9248 25.8178 41.7973C25.8832 41.7039 25.8565 41.5872 25.8848 41.4815C25.9602 41.1999 26.1946 40.9919 26.2963 40.7207" stroke="#743582" stroke-linecap="round"/>
<path d="M26.3047 20.7275C26.4248 21.0346 26.5793 21.3303 26.6039 21.6584C26.6084 21.7187 26.6729 21.9543 26.6729 21.9243" stroke="#743582" stroke-linecap="round"/>
</svg>
