<svg width="37" height="35" viewBox="0 0 37 35" fill="none" xmlns="http://www.w3.org/2000/svg">
<path d="M18.4822 0.0664902C18.2344 0.131451 17.9581 0.272671 17.8669 0.377174C17.8327 0.41954 16.9069 2.21304 15.813 4.36241C13.3688 9.16954 13.2292 9.43786 13.0697 9.67793C12.8902 9.94343 12.7449 10.0677 12.3034 10.3304C12.1609 10.4123 12.0698 10.4433 11.8618 10.4744C11.7165 10.497 10.8163 10.6298 9.85918 10.7682C2.33289 11.8697 2.14203 11.8979 1.95401 11.9713C1.63781 12.0928 1.48113 12.1832 1.30736 12.3385C1.0054 12.6068 0.865808 12.9966 0.885749 13.4909C0.894296 13.714 0.90569 13.7592 0.991151 13.9004C1.04243 13.988 1.10225 14.0953 1.12504 14.1377C1.16492 14.2111 2.33289 15.3578 5.01638 17.945C5.2984 18.2161 5.79692 18.7019 6.12737 19.0211C6.45497 19.3402 7.15575 20.0152 7.67992 20.5236C8.63423 21.4472 8.63423 21.4472 8.73964 21.6816C8.79946 21.8116 8.86498 22.0036 8.88777 22.111C8.9305 22.303 8.92765 22.3256 8.83364 22.8877C8.78237 23.2068 8.63993 24.0626 8.52029 24.7941C8.40349 25.5228 8.29239 26.1724 8.2753 26.2346C8.2582 26.2967 8.23542 26.3928 8.22117 26.4464C8.20693 26.5001 8.16989 26.7232 8.13571 26.9407C8.10437 27.1582 7.99327 27.805 7.89357 28.3811C7.64573 29.7933 7.16715 32.7109 7.16715 32.8013C7.16715 32.9171 7.29534 33.1572 7.51184 33.4396C7.73689 33.7362 7.8195 33.8096 8.06449 33.9226C8.22687 33.996 8.2582 34.0017 8.63708 34.0017C9.02451 34.0017 9.0416 33.9989 9.20683 33.917C9.69395 33.6712 16.7445 29.9967 17.5934 29.5448C18.0948 29.2793 18.2144 29.2285 18.4309 29.1833C18.7386 29.1183 18.9779 29.1155 19.2029 29.172C19.3454 29.2059 20.0917 29.542 20.2427 29.6408C20.2655 29.6549 20.4279 29.7368 20.5988 29.8244C20.7726 29.9091 21.0717 30.0673 21.2683 30.1746C21.4648 30.282 21.6414 30.3695 21.6642 30.3695C21.687 30.3723 21.7269 30.3893 21.7497 30.4119C21.801 30.4542 27.9399 33.6147 28.4897 33.8774C28.7746 34.0158 28.8572 34.0441 28.9797 34.0441C29.1791 34.0441 29.6548 33.9057 29.877 33.7814C30.2673 33.5667 30.4439 33.3295 30.5266 32.9284C30.5664 32.7307 30.5664 32.6742 30.5351 32.4765C30.4781 32.1404 29.2475 25.0992 28.9996 23.6926C28.88 23.0232 28.7917 22.4329 28.7974 22.3793C28.8059 22.3256 28.8572 22.1505 28.9113 21.9895C29.088 21.4811 29.2218 21.2947 29.8714 20.6705C31.1248 19.4617 32.6431 17.9986 36.0246 14.7421C36.3607 14.4173 36.6655 14.1038 36.7025 14.0473C36.939 13.6632 36.9447 13.1265 36.7168 12.6831C36.5858 12.4233 36.2069 12.1182 35.865 11.9939C35.7539 11.9572 35.4605 11.8951 35.1984 11.8555C34.17 11.703 33.2784 11.5759 30.7117 11.2088C29.2389 10.9998 27.732 10.7823 27.3645 10.7286C26.997 10.6778 26.5355 10.6128 26.3418 10.5874C25.7949 10.5168 25.4758 10.3982 25.0998 10.1214C24.9915 10.0423 24.8804 9.9632 24.8548 9.9519C24.832 9.93778 24.775 9.87282 24.7294 9.80503C24.6839 9.73725 24.6183 9.65251 24.5842 9.61297C24.55 9.57343 24.1939 8.86733 23.7922 8.04543C23.3905 7.2207 23.0174 6.47789 22.9661 6.39315C22.912 6.30842 22.7467 5.96384 22.5929 5.63056C22.4419 5.29728 22.0716 4.54034 21.7696 3.95004C21.4705 3.35974 21.1372 2.68471 21.029 2.45311C20.7128 1.76396 20.6074 1.5606 20.4535 1.33182C20.3738 1.2132 20.2655 1.01267 20.2142 0.888393C20.1031 0.620075 20.0063 0.498624 19.7812 0.334808C19.4052 0.0580168 18.8981 -0.046486 18.4822 0.0664902Z" fill="#733381" fill-opacity="0.32"/>
</svg>
