<svg width="50" height="45" viewBox="0 0 50 45" fill="none" xmlns="http://www.w3.org/2000/svg">
<path d="M47.5248 33.8671L48.8877 36.3842C49.2641 37.0792 48.9545 37.9223 48.1962 38.2673L41.9249 41.1552C40.3875 41.8548 38.5188 41.26 37.7875 39.8331L31.7737 28.1005H18.3929C16.8674 28.1005 15.574 27.0722 15.3582 25.6878C12.1119 4.85682 12.2984 6.15084 12.262 5.62009C12.262 2.42735 15.1663 -0.143579 18.6853 0.00623122C21.8726 0.141904 24.4377 2.5445 24.5217 5.46835C24.6049 8.36033 22.3038 10.7743 19.2905 11.1797L19.7378 14.0503H32.1877C33.0342 14.0503 33.7204 14.6793 33.7204 15.4554V18.2654C33.7204 19.0414 33.0342 19.6704 32.1877 19.6704H20.6137L21.0517 22.4805H33.7204C34.3024 22.4805 34.8724 22.6324 35.3637 22.9184C35.855 23.2044 36.2474 23.6127 36.4949 24.0956L42.0046 34.8446L45.4703 33.2333C46.2286 32.8883 47.1484 33.1721 47.5248 33.8671ZM29.827 30.9105H27.4794C26.7334 35.6704 22.2558 39.3407 16.8602 39.3407C10.9441 39.3407 6.13098 34.9286 6.13098 29.5055C6.13098 25.8608 8.30499 22.6728 11.5266 20.9738C11.171 18.6938 10.871 16.7711 10.6177 15.1489C4.40243 17.4279 0 23.004 0 29.5055C0 38.0276 7.56343 44.9608 16.8602 44.9608C23.7451 44.9608 29.6784 41.1577 32.294 35.7234L29.827 30.9105Z" fill="#733381"/>
</svg>
