<svg width="146" height="42" viewBox="0 0 146 42" fill="none" xmlns="http://www.w3.org/2000/svg">
    <path
        d="M1.5 12C1.5 6.20101 6.20101 1.5 12 1.5H134C139.799 1.5 144.5 6.20101 144.5 12V30C144.5 35.799 139.799 40.5 134 40.5H12C6.20101 40.5 1.5 35.799 1.5 30V12Z"
        fill="#733381" />
    <path
        d="M32.8716 28.2C31.5916 28.2 30.5182 28.0133 29.6516 27.64C28.7982 27.2667 28.1516 26.78 27.7116 26.18C27.2716 25.58 27.0382 24.94 27.0116 24.26C27.0116 24.1533 27.0516 24.06 27.1316 23.98C27.2116 23.8867 27.3116 23.84 27.4316 23.84H29.5716C29.7449 23.84 29.8782 23.88 29.9716 23.96C30.0649 24.0267 30.1516 24.1133 30.2316 24.22C30.3249 24.4467 30.4716 24.6667 30.6716 24.88C30.8849 25.0933 31.1716 25.2733 31.5316 25.42C31.8916 25.5533 32.3382 25.62 32.8716 25.62C33.7382 25.62 34.3849 25.48 34.8116 25.2C35.2516 24.92 35.4716 24.54 35.4716 24.06C35.4716 23.7133 35.3516 23.4333 35.1116 23.22C34.8849 23.0067 34.5182 22.8133 34.0116 22.64C33.5182 22.4667 32.8582 22.28 32.0316 22.08C31.0316 21.8667 30.1782 21.5933 29.4716 21.26C28.7782 20.9133 28.2516 20.4733 27.8916 19.94C27.5449 19.3933 27.3716 18.72 27.3716 17.92C27.3716 17.12 27.5916 16.4133 28.0316 15.8C28.4716 15.1733 29.0916 14.6867 29.8916 14.34C30.6916 13.98 31.6449 13.8 32.7516 13.8C33.6449 13.8 34.4316 13.92 35.1116 14.16C35.8049 14.4 36.3782 14.7133 36.8316 15.1C37.2982 15.4867 37.6516 15.9 37.8916 16.34C38.1316 16.78 38.2582 17.2067 38.2716 17.62C38.2716 17.7267 38.2316 17.8267 38.1516 17.92C38.0716 18 37.9716 18.04 37.8516 18.04H35.6116C35.4782 18.04 35.3582 18.0133 35.2516 17.96C35.1449 17.9067 35.0582 17.8133 34.9916 17.68C34.9116 17.3333 34.6716 17.0333 34.2716 16.78C33.8849 16.5133 33.3782 16.38 32.7516 16.38C32.0982 16.38 31.5782 16.5 31.1916 16.74C30.8182 16.98 30.6316 17.3467 30.6316 17.84C30.6316 18.16 30.7249 18.4333 30.9116 18.66C31.1116 18.8733 31.4382 19.0667 31.8916 19.24C32.3582 19.4 32.9716 19.58 33.7316 19.78C34.9049 20.02 35.8582 20.3067 36.5916 20.64C37.3249 20.9733 37.8649 21.4067 38.2116 21.94C38.5582 22.46 38.7316 23.12 38.7316 23.92C38.7316 24.8133 38.4782 25.58 37.9716 26.22C37.4782 26.86 36.7916 27.3533 35.9116 27.7C35.0449 28.0333 34.0316 28.2 32.8716 28.2ZM45.2984 28.2C43.7651 28.2 42.5451 27.7733 41.6384 26.92C40.7451 26.0667 40.2718 24.8267 40.2184 23.2C40.2184 23.0933 40.2184 22.9533 40.2184 22.78C40.2184 22.5933 40.2184 22.4467 40.2184 22.34C40.2718 21.3133 40.5051 20.4333 40.9184 19.7C41.3318 18.9533 41.9118 18.3867 42.6584 18C43.4051 17.6 44.2784 17.4 45.2784 17.4C46.3984 17.4 47.3318 17.6333 48.0784 18.1C48.8384 18.5533 49.4051 19.18 49.7784 19.98C50.1651 20.7667 50.3584 21.6733 50.3584 22.7V23.16C50.3584 23.2933 50.3051 23.4067 50.1984 23.5C50.1051 23.5933 49.9918 23.64 49.8584 23.64H43.3184C43.3184 23.6533 43.3184 23.68 43.3184 23.72C43.3184 23.7467 43.3184 23.7733 43.3184 23.8C43.3318 24.2267 43.4118 24.62 43.5584 24.98C43.7184 25.3267 43.9384 25.6067 44.2184 25.82C44.5118 26.0333 44.8584 26.14 45.2584 26.14C45.5918 26.14 45.8651 26.0933 46.0784 26C46.2918 25.9067 46.4651 25.7933 46.5984 25.66C46.7451 25.5267 46.8518 25.4133 46.9184 25.32C47.0384 25.1867 47.1318 25.1067 47.1984 25.08C47.2784 25.04 47.3984 25.02 47.5584 25.02H49.6384C49.7718 25.02 49.8784 25.06 49.9584 25.14C50.0518 25.2067 50.0918 25.3067 50.0784 25.44C50.0651 25.6533 49.9518 25.92 49.7384 26.24C49.5384 26.5467 49.2384 26.8533 48.8384 27.16C48.4384 27.4533 47.9384 27.7 47.3384 27.9C46.7518 28.1 46.0718 28.2 45.2984 28.2ZM43.3184 21.82H47.2384V21.78C47.2384 21.3 47.1584 20.8867 46.9984 20.54C46.8518 20.18 46.6318 19.9 46.3384 19.7C46.0451 19.5 45.6918 19.4 45.2784 19.4C44.8651 19.4 44.5118 19.5 44.2184 19.7C43.9251 19.9 43.6984 20.18 43.5384 20.54C43.3918 20.8867 43.3184 21.3 43.3184 21.78V21.82ZM55.4177 28.2C54.711 28.2 54.0777 28.0667 53.5177 27.8C52.9577 27.52 52.511 27.1467 52.1777 26.68C51.8443 26.2133 51.6777 25.6933 51.6777 25.12C51.6777 24.1733 52.0577 23.4267 52.8177 22.88C53.591 22.3333 54.6043 21.96 55.8577 21.76L58.4777 21.38V21.02C58.4777 20.5 58.3577 20.1 58.1177 19.82C57.8777 19.54 57.4577 19.4 56.8577 19.4C56.4177 19.4 56.0643 19.4867 55.7977 19.66C55.531 19.8333 55.3243 20.06 55.1777 20.34C55.071 20.5133 54.9177 20.6 54.7177 20.6H52.8177C52.671 20.6 52.5577 20.56 52.4777 20.48C52.3977 20.3867 52.3643 20.28 52.3777 20.16C52.3777 19.9333 52.4643 19.6667 52.6377 19.36C52.811 19.0533 53.0777 18.7533 53.4377 18.46C53.7977 18.1533 54.2577 17.9 54.8177 17.7C55.3777 17.5 56.0643 17.4 56.8777 17.4C57.7177 17.4 58.4377 17.5 59.0377 17.7C59.6377 17.9 60.1177 18.18 60.4777 18.54C60.8377 18.9 61.1043 19.32 61.2777 19.8C61.451 20.2667 61.5377 20.7733 61.5377 21.32V27.5C61.5377 27.6467 61.491 27.7667 61.3977 27.86C61.3043 27.9533 61.1843 28 61.0377 28H59.0777C58.9443 28 58.831 27.9533 58.7377 27.86C58.6443 27.7667 58.5977 27.6467 58.5977 27.5V26.76C58.4243 27.0133 58.191 27.2533 57.8977 27.48C57.6043 27.6933 57.251 27.8667 56.8377 28C56.4377 28.1333 55.9643 28.2 55.4177 28.2ZM56.2177 26.12C56.6577 26.12 57.051 26.0267 57.3977 25.84C57.7443 25.6533 58.0177 25.3667 58.2177 24.98C58.4177 24.5933 58.5177 24.1067 58.5177 23.52V23.18L56.6577 23.48C55.9377 23.6 55.411 23.78 55.0777 24.02C54.7443 24.26 54.5777 24.5533 54.5777 24.9C54.5777 25.1533 54.651 25.3733 54.7977 25.56C54.9577 25.7467 55.1643 25.8867 55.4177 25.98C55.671 26.0733 55.9377 26.12 56.2177 26.12ZM64.4392 28C64.3059 28 64.1926 27.9533 64.0992 27.86C64.0059 27.7667 63.9592 27.6467 63.9592 27.5V18.1C63.9592 17.9667 64.0059 17.8533 64.0992 17.76C64.1926 17.6533 64.3059 17.6 64.4392 17.6H66.3992C66.5326 17.6 66.6459 17.6533 66.7392 17.76C66.8459 17.8533 66.8992 17.9667 66.8992 18.1V18.9C67.2326 18.4867 67.6392 18.1667 68.1192 17.94C68.6126 17.7133 69.1792 17.6 69.8192 17.6H70.6792C70.8126 17.6 70.9259 17.6467 71.0192 17.74C71.1126 17.8333 71.1592 17.9533 71.1592 18.1V19.82C71.1592 19.9667 71.1126 20.0867 71.0192 20.18C70.9259 20.2733 70.8126 20.32 70.6792 20.32H68.9192C68.3326 20.32 67.8726 20.4867 67.5392 20.82C67.2059 21.14 67.0392 21.6 67.0392 22.2V27.5C67.0392 27.6467 66.9926 27.7667 66.8992 27.86C66.8059 27.9533 66.6859 28 66.5392 28H64.4392ZM77.1534 28.2C76.1801 28.2 75.3201 28.02 74.5734 27.66C73.8401 27.3 73.2601 26.78 72.8334 26.1C72.4068 25.4067 72.1734 24.58 72.1334 23.62C72.1201 23.4067 72.1134 23.14 72.1134 22.82C72.1134 22.4867 72.1201 22.2133 72.1334 22C72.1734 21.0267 72.4001 20.2 72.8134 19.52C73.2401 18.8267 73.8268 18.3 74.5734 17.94C75.3201 17.58 76.1801 17.4 77.1534 17.4C78.0468 17.4 78.8068 17.5267 79.4334 17.78C80.0601 18.02 80.5734 18.3267 80.9734 18.7C81.3734 19.0733 81.6668 19.4667 81.8534 19.88C82.0534 20.28 82.1601 20.6333 82.1734 20.94C82.1868 21.0733 82.1401 21.1933 82.0334 21.3C81.9401 21.3933 81.8268 21.44 81.6934 21.44H79.5534C79.4201 21.44 79.3134 21.4067 79.2334 21.34C79.1668 21.26 79.1001 21.1533 79.0334 21.02C78.8468 20.5533 78.6068 20.22 78.3134 20.02C78.0201 19.82 77.6534 19.72 77.2134 19.72C76.6134 19.72 76.1401 19.9133 75.7934 20.3C75.4468 20.6867 75.2601 21.2867 75.2334 22.1C75.2201 22.62 75.2201 23.0933 75.2334 23.52C75.2734 24.3467 75.4601 24.9467 75.7934 25.32C76.1401 25.6933 76.6134 25.88 77.2134 25.88C77.6801 25.88 78.0534 25.78 78.3334 25.58C78.6134 25.38 78.8468 25.0467 79.0334 24.58C79.0868 24.4467 79.1534 24.3467 79.2334 24.28C79.3134 24.2 79.4201 24.16 79.5534 24.16H81.6934C81.8268 24.16 81.9401 24.2133 82.0334 24.32C82.1401 24.4133 82.1868 24.5267 82.1734 24.66C82.1601 24.8867 82.0934 25.1533 81.9734 25.46C81.8668 25.7667 81.6868 26.08 81.4334 26.4C81.1934 26.72 80.8801 27.02 80.4934 27.3C80.1068 27.5667 79.6334 27.7867 79.0734 27.96C78.5268 28.12 77.8868 28.2 77.1534 28.2ZM84.635 28C84.4883 28 84.3683 27.9533 84.275 27.86C84.1817 27.7667 84.135 27.6467 84.135 27.5V14.3C84.135 14.1533 84.1817 14.0333 84.275 13.94C84.3683 13.8467 84.4883 13.8 84.635 13.8H86.795C86.9283 13.8 87.0417 13.8467 87.135 13.94C87.2283 14.0333 87.275 14.1533 87.275 14.3V18.8C87.635 18.3733 88.075 18.0333 88.595 17.78C89.115 17.5267 89.7417 17.4 90.475 17.4C91.2617 17.4 91.955 17.58 92.555 17.94C93.1683 18.2867 93.6483 18.8 93.995 19.48C94.3417 20.1467 94.515 20.96 94.515 21.92V27.5C94.515 27.6467 94.4683 27.7667 94.375 27.86C94.2817 27.9533 94.1617 28 94.015 28H91.835C91.7017 28 91.5883 27.9533 91.495 27.86C91.4017 27.7667 91.355 27.6467 91.355 27.5V22.04C91.355 21.3333 91.1817 20.7867 90.835 20.4C90.4883 20 89.995 19.8 89.355 19.8C88.7283 19.8 88.2217 20 87.835 20.4C87.4617 20.7867 87.275 21.3333 87.275 22.04V27.5C87.275 27.6467 87.2283 27.7667 87.135 27.86C87.0417 27.9533 86.9283 28 86.795 28H84.635Z"
        fill="white" />
    <circle cx="120.5" cy="19.5" r="7.5" stroke="white" stroke-width="2" />
    <line x1="115.659" y1="24.7526" x2="107.659" y2="31.7526" stroke="white" stroke-width="2" />
    <path
        d="M1.5 12C1.5 6.20101 6.20101 1.5 12 1.5H134C139.799 1.5 144.5 6.20101 144.5 12V30C144.5 35.799 139.799 40.5 134 40.5H12C6.20101 40.5 1.5 35.799 1.5 30V12Z"
        stroke="#733381" stroke-width="3" />
</svg>